<?xml version="1.0" encoding="UTF-8" standalone="no"?>
<svg
   xmlns:dc="http://purl.org/dc/elements/1.1/"
   xmlns:cc="http://creativecommons.org/ns#"
   xmlns:rdf="http://www.w3.org/1999/02/22-rdf-syntax-ns#"
   xmlns:svg="http://www.w3.org/2000/svg"
   xmlns="http://www.w3.org/2000/svg"
   xmlns:xlink="http://www.w3.org/1999/xlink"
   xmlns:sodipodi="http://sodipodi.sourceforge.net/DTD/sodipodi-0.dtd"
   xmlns:inkscape="http://www.inkscape.org/namespaces/inkscape"
   width="1200"
   height="650"
   id="svg2"
   version="1.1"
   inkscape:version="0.48.3.1 r9886"
   sodipodi:docname="seg.svg">
  <metadata
     id="metadata65">
    <rdf:RDF>
      <cc:Work
         rdf:about="">
        <dc:format>image/svg+xml</dc:format>
        <dc:type
           rdf:resource="http://purl.org/dc/dcmitype/StillImage" />
        <dc:title />
      </cc:Work>
    </rdf:RDF>
  </metadata>
  <sodipodi:namedview
     pagecolor="#ffffff"
     bordercolor="#666666"
     borderopacity="1"
     objecttolerance="10"
     gridtolerance="10"
     guidetolerance="10"
     inkscape:pageopacity="0"
     inkscape:pageshadow="2"
     inkscape:window-width="1920"
     inkscape:window-height="1004"
     id="namedview63"
     showgrid="false"
     inkscape:zoom="1.3466667"
     inkscape:cx="648.08034"
     inkscape:cy="312.25115"
     inkscape:window-x="0"
     inkscape:window-y="24"
     inkscape:window-maximized="1"
     inkscape:current-layer="svg2"
     inkscape:object-nodes="true" />
  <defs
     id="defs4">
    <inkscape:path-effect
       effect="spiro"
       id="path-effect3029"
       is_visible="true" />
    <inkscape:path-effect
       effect="spiro"
       id="path-effect1"
       is_visible="true" />
    <marker
       id="M_dot"
       markerWidth="2"
       markerHeight="2"
       refX="1"
       refY="1">
      <circle
         cx="1"
         cy="1"
         r="1"
         fill="black"
         id="circle8" />
    </marker>
  </defs>
  <g
     id="background"
     inkscape:groupmode="layer"
     inkscape:label="background"
     style="display:none"
     sodipodi:insensitive="true">
    <image
       sodipodi:absref="/home/kal5_mrt213/Desktop/U/der_weg/preprocessing/./bg.png"
       xlink:href="./bg.png"
       id="image14" />
  </g>
  <g
     id="log-data"
     inkscape:groupmode="layer"
     inkscape:label="log-data"
     style="display:none"
     sodipodi:insensitive="true">
    <image
       sodipodi:absref="/home/kal5_mrt213/Desktop/U/der_weg/preprocessing/./log.svg"
       xlink:href="./log.svg"
       id="image18" />
  </g>
  <g
     id="rt-position"
     inkscape:groupmode="layer"
     inkscape:label="rt-position"
     style="display:none"
     sodipodi:insensitive="true">
    <image
       sodipodi:absref="/home/kal5_mrt213/Desktop/U/der_weg/preprocessing/../data/PositionSVG/Position.svg"
       xlink:href="../data/PositionSVG/Position.svg"
       id="image21" />
  </g>
  <g
     id="segments"
     inkscape:groupmode="layer"
     inkscape:label="segments"
     transform="matrix(0.1,0,0,-0.1,0,650)"
     style="display:inline">
    <g
       id="segment1X"
       inkscape:groupmode="layer"
       inkscape:label="segment1X"
       style="display:inline">
      <g
         id="segment11"
         inkscape:groupmode="layer"
         inkscape:label="segment11"
         style="display:inline">
        <path
           style="fill:none;stroke:#e41a1c;stroke-width:15"
           d="M 2800,200 3800,200 C 4130.6849,200 4464.8989,207.53762 4784.8719,291.02287 5104.8448,374.50813 5407.2712,531.69481 5648.3868,758.00384 5980.6526,1069.8657 6186.3478,1496.3238 6311.0188,1934.6336 6365.9908,2127.9005 6406.7738,2326.476 6411.3704,2527.3563 6415.9669,2728.2366 6383.2595,2932.1572 6296.9936,3113.6296 6195.8766,3326.3432 6023.8552,3501.2209 5823.3639,3624.8129 5622.8726,3748.4048 5394.707,3822.6423 5162.6344,3862.8171 4698.4891,3943.1668 4223.22,3890.3372 3752.1937,3885.7394 3425.3614,3882.5491 3097.0753,3902.6568 2772.5686,3863.6066 2448.0619,3824.5564 2120.6778,3720.2925 1878.3684,3500.9397 1694.2748,3334.2873 1569.1437,3109.3163 1495.9751,2872.0194 1422.8065,2634.7224 1399.2365,2384.667 1396.3938,2136.362 1393.5899,1891.4426 1410.8278,1644.7281 1472.7557,1407.7506 1534.6836,1170.7732 1642.9324,943.09995 1807.0539,761.28273 2045.5894,497.02818 2387.9395,344.8107 2736.4719,272.32068 3085.0043,199.83067 3444.0089,200 3800,200 L 4800,200"
           id="seg11"
           inkscape:path-effect="#path-effect1"
           inkscape:original-d="M 2800,200 3800,200 C 4800,200 4648.3868,758.00384 5648.3868,758.00384 5773.3868,758.00384 6204.4077,1526.8146 6311.0188,1934.6336 6417.6299,2342.4526 6519.1381,2805.1213 6296.9936,3113.6296 5852.7044,3730.6462 4403.4088,3619.6347 3752.1937,3885.7394 2449.7636,4417.9489 1378.3684,3500.9397 1878.3684,3500.9397 2378.3684,3500.9397 2139.4192,2886.9112 1396.3938,2136.362 653.36833,1385.8128 1307.0539,761.28273 1807.0539,761.28273 2807.0539,761.28273 2800,200 3800,200 L 4800,200"
           sodipodi:nodetypes="csssssssssc"
           inkscape:connector-curvature="0" />
      </g>
      <g
         id="segment13"
         inkscape:groupmode="layer"
         inkscape:label="segment13"
         style="display:inline">
        <path
           style="fill:none;stroke:#e41a1c;stroke-width:15"
           d="M 2800,200 3800,200 C 4102.7858,200 4408.6829,207.71668 4701.741,283.84943 4994.7991,359.98218 5271.4425,501.40317 5500,700 5800.6667,961.25352 6013.5468,1311.6459 6162.4656,1681.074 6311.3843,2050.5021 6400.0635,2440.9712 6484.8151,2830.164 6569.5667,3219.3569 6651.434,3610.7878 6787.6875,3985.0723 6923.9411,4359.3567 7117.8112,4718.889 7400,5000 7606.0605,5205.2734 7859.5381,5363.7707 8136.876,5451.4163 8414.214,5539.0619 8709.1425,5550 9000,5550 L 10000,5550"
           id="seg13"
           inkscape:path-effect="#path-effect1"
           inkscape:original-d="M 2800,200 3800,200 C 4800,200 4500,700 5500,700 6500,700 6400,5000 7400,5000 8400,5000 8000,5550 9000,5550 L 10000,5550"
           sodipodi:nodetypes="cssssc"
           inkscape:connector-curvature="0" />
      </g>
      <g
         id="segment14"
         inkscape:groupmode="layer"
         inkscape:label="segment14"
         style="display:inline">
        <path
           style="fill:none;stroke:#e41a1c;stroke-width:15"
           d="M 2800,200 3800,200 C 4103.0629,200 4409.2084,206.80752 4702.892,281.62103 4996.5756,356.43454 5274.8797,497.1011 5500,700 5775.351,948.17134 5963.3026,1275.7765 6177.2322,1578.4997 6284.197,1729.8613 6399.1128,1876.6623 6534.1949,2003.5662 6669.2771,2130.4701 6825.547,2237.4066 7000,2300 7203.6621,2373.0735 7426.1223,2383.4512 7640.6206,2355.0175 7855.1188,2326.5838 8062.9201,2260.5662 8265.3581,2184.1669 8670.234,2031.3684 9068.5469,1833.4689 9500,1800 9944.0013,1765.5577 10395.844,1915.7083 10744.447,2192.8352 11093.051,2469.9621 11338.591,2868.8256 11450,3300 11549.772,3686.1372 11543.474,4100.269 11423.672,4480.6689 11303.87,4861.0687 11070.416,5204.0881 10763.551,5458.8239 10456.686,5713.5597 10080.653,5877.7995 9690.7383,5961.6045 9300.824,6045.4095 8898.8188,6050 8500,6050 L 7500,6050"
           id="seg14"
           inkscape:path-effect="#path-effect1"
           inkscape:original-d="M 2800,200 3800,200 C 4800,200 4500,700 5500,700 6500,700 6000,2300 7000,2300 8000,2300 8500,1800 9500,1800 10500,1800 10450,3300 11450,3300 12450,3300 9500,6050 8500,6050 L 7500,6050"
           sodipodi:nodetypes="cssssssc"
           inkscape:connector-curvature="0" />
      </g>
      <g
         id="segment15"
         inkscape:groupmode="layer"
         inkscape:label="segment15"
         style="display:inline">
        <path
           style="fill:none;stroke:#e41a1c;stroke-width:15"
           d="M 2800,200 3800,200 C 4111.3927,200 4425.4469,202.26316 4729.7454,268.35284 5034.0439,334.44252 5329.697,467.07605 5551.9802,685.14851 5735.5685,865.25906 5861.777,1094.5032 5982.3068,1321.6971 6102.8366,1548.891 6222.4225,1780.611 6396.3134,1970.1009 6579.7899,2170.0363 6823.5616,2317.4132 7089.7409,2370.199 7371.2153,2426.018 7664.7451,2375.6789 7935.8568,2281.6465 8206.9684,2187.6142 8460.9492,2051.1337 8720.247,1928.2181 8991.7906,1799.4976 9269.9835,1685.3166 9543.0693,1559.901 9939.8058,1377.6984 10330.663,1170.0472 10756.931,1075.7426 11098.024,1000.2816 11450.66,1000 11800,1000 L 12800,1000"
           id="seg15"
           inkscape:path-effect="#path-effect1"
           inkscape:original-d="M 2800,200 3800,200 C 4800,200 4551.9802,685.14851 5551.9802,685.14851 6551.9802,685.14851 5396.3134,1970.1009 6396.3134,1970.1009 6896.3134,1970.1009 6413.8192,2537.7243 7089.7409,2370.199 7427.7017,2286.4364 8129.5239,2189.6787 8720.247,1928.2181 9310.9701,1666.7575 9293.0693,1559.901 9543.0693,1559.901 10043.069,1559.901 10581.931,1150.7426 10756.931,1075.7426 10931.931,1000.7426 11300,1000 11800,1000 L 12800,1000"
           sodipodi:nodetypes="cssssssssc"
           inkscape:connector-curvature="0" />
      </g>
    </g>
    <g
       id="segment2X"
       inkscape:groupmode="layer"
       inkscape:label="segment2X"
       style="display:inline">
      <g
         id="segment22"
         inkscape:groupmode="layer"
         inkscape:label="segment22"
         style="display:inline">
        <path
           style="fill:none;stroke:#377eb8;stroke-width:15"
           d="M 4800,750 3800,750 C 3536.1408,750 3270.9403,745.33645 3009.8149,783.22037 2748.6895,821.1043 2483.6019,910.49536 2300,1100 2175.7892,1228.2042 2096.9811,1395.3836 2053.5538,1568.5272 2010.1264,1741.6708 2000.321,1921.4936 2000,2100 1999.6788,2278.6383 2008.8585,2458.6673 2052.1714,2631.9756 2095.4843,2805.2838 2174.7702,2972.6059 2300,3100 2480.4876,3283.6069 2740.7329,3369.1586 2996.8296,3395.6495 3252.9262,3422.1405 3511.114,3395.9918 3768.4952,3389.4984 4161.6584,3379.5793 4570.6111,3412.9697 4933.3079,3260.8951 5123.3409,3181.2164 5292.2319,3052.0352 5419.6842,2890.118 5547.1365,2728.2009 5632.9664,2533.9487 5667.8707,2330.8651 5737.6792,1924.698 5593.4066,1489.4089 5300,1200 5108.8062,1011.4112 4860.8102,885.63705 4600.3499,820.20593 4339.8897,754.77481 4068.5531,750 3800,750 L 2800,750"
           id="seg22"
           inkscape:path-effect="#path-effect1"
           inkscape:original-d="M 4800,750 3800,750 C 2800,750 1300,1100 2300,1100 3300,1100 1000,2100 2000,2100 3000,2100 1300,3100 2300,3100 3300,3100 2768.4952,3389.4984 3768.4952,3389.4984 4268.4952,3389.4984 4800.4317,3808.2697 4933.3079,3260.8951 5066.1841,2713.5205 4800,1200 5300,1200 6300,1200 4800,750 3800,750 L 2800,750"
           sodipodi:nodetypes="cssssssssc"
           inkscape:connector-curvature="0" />
      </g>
      <g
         id="segment23"
         inkscape:groupmode="layer"
         inkscape:label="segment23"
         style="display:inline">
        <path
           style="fill:none;stroke:#377eb8;stroke-width:15"
           d="M 4800,750 3800,750 C 3536.0349,750 3270.7428,745.0534 3009.4498,782.51682 2878.8032,801.24853 2749.242,831.67258 2627.3761,882.349 2505.5103,933.02543 2391.2165,1004.6116 2300,1100 2176.8419,1228.7908 2100.0751,1396.5575 2057.4421,1569.5819 2014.8091,1742.6062 2004.4581,1921.8565 2000,2100 1995.3346,2286.4261 1997.1318,2474.8637 2039.2602,2656.5274 2081.3886,2838.191 2167.0334,3014.3831 2307.4257,3137.1287 2458.9692,3269.6238 2662.2128,3329.8797 2862.7316,3347.5599 3063.2504,3365.24 3264.841,3344.083 3465.8416,3333.1683 4044.0738,3301.7692 4623.0667,3355.251 5200.495,3399.0099 5489.8708,3420.9395 5781.7452,3440.8252 6061.3766,3518.4498 6341.0079,3596.0745 6611.3569,3736.9011 6794.0594,3962.3763 6915.7664,4112.5762 6993.3287,4292.9019 7067.8493,4471.2815 7142.3698,4649.6612 7216.6308,4830.9032 7333.1683,4985.1485 7517.0533,5228.5328 7797.0231,5387.4777 8091.5421,5466.9018 8386.0611,5546.3259 8694.9596,5550 9000,5550 L 10000,5550"
           id="seg23"
           inkscape:path-effect="#path-effect1"
           inkscape:original-d="M 4800,750 3800,750 C 2800,750 1300,1100 2300,1100 3300,1100 1000,2100 2000,2100 3000,2100 1307.4257,3137.1287 2307.4257,3137.1287 3307.4257,3137.1287 2465.8416,3333.1683 3465.8416,3333.1683 3965.8416,3333.1683 4724.2574,3288.1188 5200.495,3399.0099 5676.7327,3509.901 6294.0594,3962.3763 6794.0594,3962.3763 7794.0594,3962.3763 6333.1683,4985.1485 7333.1683,4985.1485 8333.1683,4985.1485 8000,5550 9000,5550 L 10000,5550"
           sodipodi:nodetypes="csssssssssc"
           inkscape:connector-curvature="0" />
      </g>
      <g
         id="segment24"
         inkscape:groupmode="layer"
         inkscape:label="segment24"
         style="display:inline">
        <path
           style="fill:none;stroke:#377eb8;stroke-width:15"
           d="M 4800,750 3800,750 C 3536.1815,750 3271.0162,745.44595 3009.9556,783.49263 2748.895,821.53932 2484.052,910.98924 2300,1100 2175.3794,1227.9782 2095.7802,1394.9292 2052.0443,1568.1224 2008.3085,1741.3157 1998.7152,1921.3745 2000,2100 2001.2811,2278.1116 2013.3669,2457.3425 2057.5612,2629.8889 2101.7554,2802.4353 2179.4811,2968.849 2300,3100 2479.7415,3295.5982 2742.6318,3399.166 3006.1443,3432.734 3269.6568,3466.302 3536.8112,3436.0179 3800,3400 4768.5943,3267.4461 5732.0359,3055.2715 6634.2476,2678.7619 7079.7377,2492.8507 7508.3105,2267.7505 7956.7818,2089.1507 8405.2531,1910.5509 8880.8902,1778.0062 9363.4794,1789.4984 9821.6651,1800.4095 10277.577,1945.1721 10651.187,2210.6314 11024.798,2476.0906 11313.261,2862.5579 11450,3300 11569.809,3683.2798 11571.754,4102.8662 11453.106,4486.5068 11334.458,4870.1475 11095.914,5214.2327 10784.33,5467.5568 10472.746,5720.8809 10092.43,5881.9598 9699.3074,5963.8882 9306.185,6045.8166 8901.5688,6050 8500,6050 L 7500,6050"
           id="seg24"
           inkscape:path-effect="#path-effect1"
           inkscape:original-d="M 4800,750 3800,750 C 2800,750 1300,1100 2300,1100 3300,1100 1000,2100 2000,2100 3000,2100 1300,3100 2300,3100 3300,3100 2800,3400 3800,3400 4300,3400 5493.3777,3081.3873 6634.2476,2678.7619 7775.1175,2276.1365 8863.4794,1789.4984 9363.4794,1789.4984 10363.479,1789.4984 10450,3300 11450,3300 12450,3300 9500,6050 8500,6050 L 7500,6050"
           sodipodi:nodetypes="csssssssssc"
           inkscape:connector-curvature="0" />
      </g>
      <g
         id="segment25"
         inkscape:groupmode="layer"
         inkscape:label="segment25"
         style="display:inline">
        <path
           style="fill:none;stroke:#377eb8;stroke-width:15"
           d="M 4800,750 3800,750 C 3536.1785,750 3271.0105,745.43778 3009.9451,783.47233 2748.8797,821.50687 2484.0184,910.95237 2300,1100 2175.41,1227.9951 2095.8698,1394.963 2052.157,1568.1525 2008.4442,1741.342 1998.8351,1921.3829 2000,2100 2001.1619,2278.1501 2013.0318,2457.4405 2057.1603,2630.0427 2101.2887,2802.6448 2179.1276,2969.1234 2300,3100 2478.8701,3293.6745 2739.8791,3395.872 3001.3835,3429.3348 3262.8879,3462.7976 3528.0118,3433.6021 3789.4984,3400 4282.0159,3336.7095 4773.0769,3257.6771 5255.7957,3141.2225 6936.7668,2735.6927 8474.0815,1888.6488 10100,1300 10372.415,1201.3746 10649.175,1111.7208 10934.274,1060.1868 11219.373,1008.6528 11510.281,1000 11800,1000 L 12800,1000"
           id="seg25"
           inkscape:path-effect="#path-effect1"
           inkscape:original-d="M 4800,750 3800,750 C 2800,750 1300,1100 2300,1100 3300,1100 1000,2100 2000,2100 3000,2100 1300,3100 2300,3100 3300,3100 2789.4984,3400 3789.4984,3400 4289.4984,3400 6643.3309,2912.8649 5255.7957,3141.2225 -2039.791,4341.9151 9600,1300 10100,1300 11100,1300 10800,1000 11800,1000 L 12800,1000"
           sodipodi:nodetypes="cssssssssc"
           inkscape:connector-curvature="0" />
      </g>
    </g>
    <g
       id="segment3X"
       inkscape:groupmode="layer"
       inkscape:label="segment3X"
       style="display:inline">
      <g
         id="segment31"
         inkscape:groupmode="layer"
         inkscape:label="segment31"
         style="display:inline">
        <path
           style="fill:none;stroke:#4daf4a;stroke-width:15"
           d="M 8000,5550 9000,5550 C 9238.5696,5550 9478.7151,5547.3137 9712.8357,5501.4554 9946.9564,5455.597 10173.999,5366.2915 10368.116,5227.6049 10562.234,5088.9183 10721.55,4902.2088 10828.945,4689.1785 10936.339,4476.1482 10992.117,4238.4394 11000,4000 11009.835,3702.5192 10945.261,3401.9431 10807.407,3138.1484 10669.552,2874.3537 10457.99,2648.4342 10200,2500 9965.02,2364.8046 9695.2865,2295.0694 9424.571,2280.6979 9153.8556,2266.3264 8881.9559,2306.0872 8620.9093,2379.2177 8098.816,2525.4785 7624.2629,2801.212 7147.6292,3059.6572 6633.6413,3338.3569 6104.2275,3602.1231 5535.2105,3736.573 4900.3495,3886.5808 4240.1274,3870.3637 3588.1161,3891.1531 3290.2289,3900.6513 2990.5496,3917.9582 2695.2837,3877.399 2400.0179,3836.8398 2104.8697,3733.2848 1886.3218,3530.6427 1700.1881,3358.0557 1579.9987,3122.5489 1516.5935,2876.7608 1453.1883,2630.9726 1443.6229,2374.2258 1454.1525,2120.6096 1463.8112,1887.9701 1490.3259,1654.8654 1554.111,1430.9326 1617.8961,1206.9998 1720.058,991.8715 1870.0635,813.79067 2095.2085,546.50709 2419.5503,375.33604 2758.3416,289.59678 3097.1329,203.85752 3450.5279,200 3800,200 L 4800,200"
           id="seg31"
           inkscape:path-effect="#path-effect1"
           inkscape:original-d="M 8000,5550 9000,5550 C 10000,5550 10000,4000 11000,4000 12000,4000 9200,2500 10200,2500 10700,2500 9464.9102,2809.4222 7147.6292,3059.6572 6568.309,3122.216 6144.0058,3552.1304 5535.2105,3736.573 4926.4152,3921.0157 4133.1277,3859.9865 3588.1161,3891.1531 2498.0929,3953.4864 1636.3218,3530.6427 1886.3218,3530.6427 2386.3218,3530.6427 1748.2351,2810.7747 1454.1525,2120.6096 1160.0699,1430.4446 1370.0635,813.79067 1870.0635,813.79067 2870.0635,813.79067 2800,200 3800,200 L 4800,200"
           sodipodi:nodetypes="cssssssssssc"
           inkscape:connector-curvature="0" />
      </g>
      <g
         id="segment32"
         inkscape:groupmode="layer"
         inkscape:label="segment32"
         style="display:inline">
        <path
           style="fill:none;stroke:#4daf4a;stroke-width:15"
           d="M 8000,5550 9000,5550 C 9237.9127,5550 9477.4458,5547.1826 9710.7631,5500.6478 9944.0804,5454.1131 10169.989,5363.6392 10362.763,5224.2093 10555.537,5084.7793 10713.3,4897.9264 10820.822,4685.6965 10928.344,4473.4667 10986.077,4237.505 11000,4000 11017.613,3699.5367 10964.916,3392.6224 10829.334,3123.911 10693.752,2855.1995 10472.997,2626.7318 10200,2500 9907.8261,2364.3659 9571.3981,2349.6845 9252.9658,2398.2954 8934.5334,2446.9064 8628.8321,2555.3025 8323.5718,2658.1535 8018.3115,2761.0044 7708.1493,2859.5137 7387.2148,2887.1392 7066.2802,2914.7648 6729.8323,2866.2674 6457.9208,2693.5644 6189.9704,2523.3772 6007.0112,2249.6022 5845.2586,1976.4773 5683.506,1703.3524 5531.0028,1417.7128 5300,1200 5104.8062,1016.036 4858.7638,889.54681 4599.0137,822.66436 4339.2636,755.78191 4068.2226,750 3800,750 L 2800,750"
           id="seg32"
           inkscape:path-effect="#path-effect1"
           inkscape:original-d="M 8000,5550 9000,5550 C 10000,5550 10000,4000 11000,4000 12000,4000 9200,2500 10200,2500 11200,2500 5457.9208,2693.5644 6457.9208,2693.5644 7457.9208,2693.5644 4300,1200 5300,1200 6300,1200 4800,750 3800,750 L 2800,750"
           sodipodi:nodetypes="cssssssc"
           inkscape:connector-curvature="0" />
      </g>
      <g
         id="segment33"
         inkscape:groupmode="layer"
         inkscape:label="segment33"
         style="display:inline">
        <path
           style="fill:none;stroke:#4daf4a;stroke-width:15"
           d="M 8000,5550 9000,5550 C 9238.8246,5550 9479.2082,5547.3636 9713.6388,5501.7621 9948.0694,5456.1606 10175.547,5367.2989 10370.177,5228.8931 10564.808,5090.4873 10724.718,4903.8275 10832.062,4690.4863 10939.406,4477.1451 10994.43,4238.7597 11000,4000 11006.915,3703.5882 10937.904,3405.3963 10799.149,3143.3755 10660.395,2881.3546 10451.974,2656.2589 10200,2500 9868.8719,2294.6546 9468.5696,2211.8847 9079.9671,2240.1805 8691.3645,2268.4763 8314.5897,2404.2104 7980.8763,2605.3271 7576.1619,2849.2334 7220.7445,3206.484 7074.4508,3655.797 6990.7038,3913.0099 6979.4464,4194.3007 7048.724,4455.7823 7118.0017,4717.2639 7268.0719,4956.2228 7471.5333,5134.4795 7674.9948,5312.7362 7928.7132,5428.5648 8192.6862,5487.6436 8456.6591,5546.7223 8729.4967,5550 9000,5550 L 10000,5550"
           id="seg33"
           inkscape:path-effect="#path-effect1"
           inkscape:original-d="M 8000,5550 9000,5550 C 10000,5550 10000,4000 11000,4000 12000,4000 9200,2500 10200,2500 10700,2500 8930.8763,1980.3271 7980.8763,2605.3271 7030.8763,3230.3271 6574.4508,3655.797 7074.4508,3655.797 8074.4508,3655.797 8000,5550 9000,5550 L 10000,5550"
           sodipodi:nodetypes="cssssssc"
           inkscape:connector-curvature="0" />
      </g>
      <g
         id="segment35"
         inkscape:groupmode="layer"
         inkscape:label="segment35"
         style="display:inline">
        <path
           style="fill:none;stroke:#4daf4a;stroke-width:15"
           d="M 8000,5550 9000,5550 C 9299.4977,5550 9602.3288,5545.2783 9892.3537,5470.5491 10182.379,5395.8198 10456.699,5250.0097 10665.037,5034.8489 10873.375,4819.6882 11011.852,4538.9228 11060.13,4243.3418 11108.408,3947.7608 11068.401,3640.6858 10962.871,3360.396 10861.543,3091.2663 10699.75,2843.9272 10487.121,2650.3118 10274.491,2456.6964 10010.73,2317.8882 9728.7129,2261.6337 9465.8042,2209.1908 9192.3877,2228.4386 8930.588,2286.1631 8668.7883,2343.8875 8416.9082,2439.2366 8168.3169,2539.604 7806.5515,2685.6648 7449.3116,2843.1055 7099.0099,3014.8515 6434.3516,3340.7202 5779.4285,3723.3569 5049.505,3846.5347 4438.226,3949.6907 3812.9869,3863.7189 3193.0693,3861.3861 2956.2701,3860.495 2718.3409,3871.8043 2483.5264,3841.1977 2248.7119,3810.5911 2013.0812,3734.3249 1834.1584,3579.2079 1681.3517,3446.7322 1578.3867,3263.5754 1517.3952,3070.7549 1456.4037,2877.9345 1435.0855,2674.7931 1425.7426,2472.7723 1409.1236,2113.4235 1429.9742,1749.098 1529.703,1403.4654 1627.7658,1063.6067 1809.5517,737.40768 2094.0595,527.22773 2292.3071,380.77239 2531.6549,296.92707 2774.8383,256.76276 3018.0216,216.59844 3266.1846,218.32362 3512.3762,230.19803 3908.265,249.2927 4302.8599,294.36915 4693.0693,363.8614 4899.9602,400.70653 5106.8018,444.75585 5302.2182,522.0466 5497.6346,599.33735 5682.3453,711.58985 5821.7822,868.8119 5970.9792,1037.0389 6061.641,1247.849 6149.4814,1454.8372 6237.3219,1661.8255 6327.1981,1872.8413 6475.2475,2042.0792 6604.1706,2189.4535 6773.8383,2299.4203 6958.3956,2364.8339 7142.9529,2430.2476 7341.985,2451.7462 7537.1287,2435.6436 7810.3143,2413.1013 8073.1246,2318.44 8319.3817,2198.0407 8565.6388,2077.6415 8798.1231,1931.249 9037.1287,1797.0297 9492.1861,1541.4813 9971.0993,1330.0183 10460.148,1147.7723 10701.102,1057.9797 10946.967,977.13188 11201.324,939.39428 11455.681,901.65667 11714.482,912.51049 11970.792,933.16832 L 12800,1000"
           id="seg35"
           inkscape:path-effect="#path-effect1"
           inkscape:original-d="M 8000,5550 9000,5550 C 10000,5550 9962.8712,3360.396 10962.871,3360.396 11962.871,3360.396 8967.2423,2748.2104 9728.7129,2261.6337 10287.514,1904.5621 8754.9505,2272.2772 8168.3169,2539.604 7581.6832,2806.9307 8079.2079,2457.9208 7099.0099,3014.8515 6118.8119,3571.7822 5985.1485,3846.5347 5049.505,3846.5347 4113.8614,3846.5347 4143.5644,3883.6634 3193.0693,3861.3861 2242.5743,3839.1089 2205.4456,4039.6039 1834.1584,3579.2079 1462.8713,3118.8119 1396.0396,2985.1485 1425.7426,2472.7723 1455.4455,1960.396 1292.0792,2034.6535 1529.703,1403.4654 1767.3267,772.27727 1522.1147,184.06286 2094.0595,527.22773 3024.2297,1085.3266 2940.5941,207.92083 3512.3762,230.19803 4084.1584,252.47523 4232.6733,252.4752 4693.0693,363.8614 5153.4654,475.2475 5591.5842,393.5644 5821.7822,868.8119 6051.9802,1344.0594 6066.8317,1774.7525 6475.2475,2042.0792 6883.6634,2309.4059 6972.7723,2472.7723 7537.1287,2435.6436 8101.4852,2398.5149 8606.4356,1975.2476 9037.1287,1797.0297 9467.8218,1618.8119 10153.749,1180.9563 10460.148,1147.7723 11539.746,1030.8485 10974.024,852.83181 11970.792,933.16832 L 12800,1000"
           sodipodi:nodetypes="csssssssssssssssssssc"
           inkscape:connector-curvature="0" />
      </g>
    </g>
    <g
       id="segment4X"
       inkscape:groupmode="layer"
       inkscape:label="segment4X"
       style="display:inline">
      <g
         id="segment41"
         inkscape:groupmode="layer"
         inkscape:label="segment41"
         style="display:inline">
        <path
           style="fill:none;stroke:#984ea3;stroke-width:15"
           d="M 9500,6050 8500,6050 C 8223.5177,6050 7942.7549,6040.9558 7679.7391,5955.7198 7416.7234,5870.4837 7176.8191,5712.55 7000,5500 6836.6046,5303.5864 6728.7406,5068.1952 6616.6167,4838.6204 6504.4929,4609.0456 6383.1706,4378.1149 6200,4200 5946.7577,3953.7475 5593.9708,3829.9109 5242.5128,3794.5668 4891.0548,3759.2226 4536.8748,3805.2315 4187.6568,3858.3236 3838.4389,3911.4156 3487.9649,3971.8574 3134.792,3965.4658 2781.6191,3959.0742 2420.5083,3880.9929 2130.4064,3679.4667 1898.7026,3518.5082 1722.1529,3284.492 1610.9197,3025.221 1499.6865,2765.95 1451.8573,2482.1185 1450,2200 1448.064,1905.9239 1496.4015,1609.7964 1609.4985,1338.3308 1722.5955,1066.8652 1901.5394,822.33377 2130.2928,637.51923 2359.0461,452.70468 2634.9688,330.22958 2922.2028,267.13331 3209.4368,204.03703 3505.9175,200 3800,200 L 4800,200"
           id="seg41"
           inkscape:path-effect="#path-effect1"
           inkscape:original-d="M 9500,6050 8500,6050 C 7500,6050 6000,5500 7000,5500 8000,5500 5200,4200 6200,4200 7200,4200 1130.4064,3679.4667 2130.4064,3679.4667 3130.4064,3679.4667 450,2200 1450,2200 2450,2200 2800,200 3800,200 L 4800,200"
           sodipodi:nodetypes="cssssssc"
           inkscape:connector-curvature="0" />
      </g>
      <g
         id="segment42"
         inkscape:groupmode="layer"
         inkscape:label="segment42"
         style="display:inline">
        <path
           style="fill:none;stroke:#984ea3;stroke-width:15"
           d="M 9500,6050 8500,6050 C 8224.5399,6050 7944.7147,6038.0434 7684.1058,5948.8174 7423.4969,5859.5914 7189.3398,5700.0717 7000,5500 6739.147,5224.3617 6560.1733,4879.6102 6435.1725,4521.2869 6310.1718,4162.9636 6236.4952,3789.1326 6163.8754,3416.6448 6091.2557,3044.1571 6018.9359,2670.1567 5896.4895,2310.9526 5774.0432,1951.7484 5598.9079,1605.3438 5342.0063,1326.019 5149.6514,1116.8747 4909.5711,949.68739 4641.2648,856.12731 4372.9585,762.56723 4084.1509,750 3800,750 L 2800,750"
           id="seg42"
           inkscape:path-effect="#path-effect1"
           inkscape:original-d="M 9500,6050 8500,6050 C 7500,6050 6000,5500 7000,5500 8000,5500 4342.0063,1326.019 5342.0063,1326.019 6342.0063,1326.019 4800,750 3800,750 L 2800,750"
           sodipodi:nodetypes="cssssc"
           inkscape:connector-curvature="0" />
      </g>
      <g
         id="segment44"
         inkscape:groupmode="layer"
         inkscape:label="segment44"
         style="display:inline">
        <path
           style="fill:none;stroke:#984ea3;stroke-width:15"
           d="M 9500,6050 8500,6050 C 8257.4877,6050 8013.5783,6050.0373 7774.5398,6009.1376 7535.5012,5968.2379 7299.1055,5883.7351 7111.3861,5730.198 6846.1022,5513.2203 6704.1882,5183.9285 6571.7822,4867.8217 6467.8816,4619.7688 6363.2541,4369.5008 6312.913,4105.3203 6262.5719,3841.1398 6269.9703,3558.5016 6383.9054,3314.8946 6508.0251,3049.5117 6747.145,2853.4129 7005.3223,2714.9273 7263.4996,2576.4416 7544.6995,2487.4492 7815.9466,2376.7297 8092.2959,2263.9276 8358.8937,2128.2929 8635.4431,2015.9824 8911.9926,1903.6719 9201.8545,1814.2306 9500,1800 9942.7406,1778.8679 10388.974,1930.1481 10737.171,2204.419 11085.368,2478.6899 11335.019,2871.9285 11450,3300 11553.59,3685.664 11548.836,4100.8211 11429.247,4481.8277 11309.658,4862.8343 11075.234,5206.0446 10767.471,5460.5045 10459.709,5714.9644 10082.864,5878.5976 9692.3456,5962.0425 9301.8273,6045.4873 8899.3339,6050 8500,6050 L 7500,6050"
           id="seg44"
           inkscape:path-effect="#path-effect1"
           inkscape:original-d="M 9500,6050 8500,6050 C 7500,6050 6111.3861,5730.198 7111.3861,5730.198 7611.3861,5730.198 7246.1104,5603.71 6571.7822,4867.8217 4834.806,2972.2752 5835.7487,3523.0478 6383.9054,3314.8946 6932.062,3106.7414 7027.4328,2139.6624 7815.9466,2376.7297 9392.9743,2850.8644 9250,1800 9500,1800 10500,1800 10450,3300 11450,3300 12450,3300 9500,6050 8500,6050 L 7500,6050"
           sodipodi:nodetypes="cssssssssc"
           inkscape:connector-curvature="0" />
      </g>
      <g
         id="segment45"
         inkscape:groupmode="layer"
         inkscape:label="segment45"
         style="display:inline">
        <path
           style="fill:none;stroke:#984ea3;stroke-width:15"
           d="M 9500,6050 8500,6050 C 8249.3654,6050 7997.1168,6048.3746 7750.7999,6002.053 7504.483,5955.7315 7263.3105,5863.5286 7066.8317,5707.9208 6825.9975,5517.1843 6665.0375,5243.349 6540.3775,4962.5619 6429.1309,4711.9874 6341.8143,4448.4824 6311.0577,4176.0537 6280.301,3903.6249 6308.1284,3621.1207 6418.8119,3370.297 6567.5312,3033.2791 6855.5301,2774.2736 7172.5738,2586.7054 7489.6175,2399.1373 7838.8571,2274.2667 8179.672,2134.4678 8825.4848,1869.5617 9447.4821,1547.931 10100,1300 10370.923,1197.0601 10648.352,1108.5786 10933.766,1058.235 11219.18,1007.8915 11510.18,1000 11800,1000 L 12800,1000"
           id="seg45"
           inkscape:path-effect="#path-effect1"
           inkscape:original-d="M 9500,6050 8500,6050 C 7500,6050 6066.8317,5707.9208 7066.8317,5707.9208 7316.8317,5707.9208 6830.5074,5415.7179 6540.3775,4962.5619 6250.2475,4509.406 6156.3119,3895.297 6418.8119,3370.297 6681.3119,2845.297 7387.5,2520.7921 8179.672,2134.4678 8971.8441,1748.1436 9850,1300 10100,1300 11100,1300 10800,1000 11800,1000 L 12800,1000"
           sodipodi:nodetypes="csssssssc"
           inkscape:connector-curvature="0" />
      </g>
    </g>
  </g>
</svg>
