<?xml version="1.0" encoding="UTF-8" standalone="no"?>
<svg
   xmlns:dc="http://purl.org/dc/elements/1.1/"
   xmlns:cc="http://creativecommons.org/ns#"
   xmlns:rdf="http://www.w3.org/1999/02/22-rdf-syntax-ns#"
   xmlns:svg="http://www.w3.org/2000/svg"
   xmlns="http://www.w3.org/2000/svg"
   xmlns:xlink="http://www.w3.org/1999/xlink"
   xmlns:sodipodi="http://sodipodi.sourceforge.net/DTD/sodipodi-0.dtd"
   xmlns:inkscape="http://www.inkscape.org/namespaces/inkscape"
   width="1200"
   height="650"
   id="svg2"
   version="1.1"
   inkscape:version="0.48.3.1 r9886"
   sodipodi:docname="seg.svg"
   enable-background="new">
  <metadata
     id="metadata65">
    <rdf:RDF>
      <cc:Work
         rdf:about="">
        <dc:format>image/svg+xml</dc:format>
        <dc:type
           rdf:resource="http://purl.org/dc/dcmitype/StillImage" />
        <dc:title />
      </cc:Work>
    </rdf:RDF>
  </metadata>
  <sodipodi:namedview
     pagecolor="#ffffff"
     bordercolor="#666666"
     borderopacity="1"
     objecttolerance="10"
     gridtolerance="10"
     guidetolerance="10"
     inkscape:pageopacity="0"
     inkscape:pageshadow="2"
     inkscape:window-width="1533"
     inkscape:window-height="848"
     id="namedview63"
     showgrid="false"
     inkscape:zoom="0.95223716"
     inkscape:cx="547.62386"
     inkscape:cy="274.58142"
     inkscape:window-x="66"
     inkscape:window-y="24"
     inkscape:window-maximized="0"
     inkscape:current-layer="segment25"
     inkscape:object-nodes="true" />
  <defs
     id="defs4">
    <inkscape:perspective
       sodipodi:type="inkscape:persp3d"
       inkscape:vp_x="0 : 325 : 1"
       inkscape:vp_y="0 : 1000 : 0"
       inkscape:vp_z="1200 : 325 : 1"
       inkscape:persp3d-origin="600 : 216.66667 : 1"
       id="perspective3028" />
    <inkscape:path-effect
       effect="spiro"
       id="path-effect3029"
       is_visible="true" />
    <inkscape:path-effect
       effect="spiro"
       id="path-effect1"
       is_visible="true" />
    <marker
       id="M_dot"
       markerWidth="2"
       markerHeight="2"
       refX="1"
       refY="1">
      <circle
         cx="1"
         cy="1"
         r="1"
         fill="black"
         id="circle8" />
    </marker>
  </defs>
  <g
     id="background"
     inkscape:groupmode="layer"
     inkscape:label="background"
     style="display:inline"
     sodipodi:insensitive="true">
    <image
       sodipodi:absref="/home/kal5/der_weg/preprocessing/./bg.png"
       xlink:href="./bg.png"
       id="image14" />
  </g>
  <g
     id="log-data"
     inkscape:groupmode="layer"
     inkscape:label="log-data"
     style="display:none"
     sodipodi:insensitive="true">
    <image
       sodipodi:absref="/home/kal5/der_weg/preprocessing/./log.svg"
       xlink:href="./log.svg"
       id="image18" />
  </g>
  <g
     id="rt-position"
     inkscape:groupmode="layer"
     inkscape:label="rt-position"
     style="display:inline"
     sodipodi:insensitive="true">
    <image
       sodipodi:absref="/home/kal5/der_weg/preprocessing/../data/PositionSVG/Position.svg"
       xlink:href="../data/PositionSVG/Position.svg"
       id="image21" />
  </g>
  <g
     id="segments"
     inkscape:groupmode="layer"
     inkscape:label="segments"
     transform="matrix(0.1,0,0,-0.1,0,650)"
     style="display:inline">
    <g
       id="segment1X"
       inkscape:groupmode="layer"
       inkscape:label="segment1X"
       style="display:inline">
      <g
         id="segment11"
         inkscape:groupmode="layer"
         inkscape:label="segment11"
         style="display:none">
        <path
           style="fill:none;stroke:#e41a1c;stroke-width:15"
           d="M 2800,200 3800,200 C 4130.6849,200 4464.8989,207.53762 4784.8719,291.02287 5104.8448,374.50813 5407.2712,531.69481 5648.3868,758.00384 5980.6526,1069.8657 6186.3478,1496.3238 6311.0188,1934.6336 6365.9908,2127.9005 6406.7738,2326.476 6411.3704,2527.3563 6415.9669,2728.2366 6383.2595,2932.1572 6296.9936,3113.6296 6195.8766,3326.3432 6023.8552,3501.2209 5823.3639,3624.8129 5622.8726,3748.4048 5394.707,3822.6423 5162.6344,3862.8171 4698.4891,3943.1668 4223.22,3890.3372 3752.1937,3885.7394 3425.3614,3882.5491 3097.0753,3902.6568 2772.5686,3863.6066 2448.0619,3824.5564 2120.6778,3720.2925 1878.3684,3500.9397 1694.2748,3334.2873 1569.1437,3109.3163 1495.9751,2872.0194 1422.8065,2634.7224 1399.2365,2384.667 1396.3938,2136.362 1393.5899,1891.4426 1410.8278,1644.7281 1472.7557,1407.7506 1534.6836,1170.7732 1642.9324,943.09995 1807.0539,761.28273 2045.5894,497.02818 2387.9395,344.8107 2736.4719,272.32068 3085.0043,199.83067 3444.0089,200 3800,200 L 4800,200"
           id="seg11"
           inkscape:path-effect="#path-effect1"
           inkscape:original-d="m 2800,200 1000,0 c 1000,0 848.3868,558.00384 1848.3868,558.00384 125,0 556.0209,768.81076 662.632,1176.62976 106.6111,407.819 208.1193,870.4877 -14.0252,1178.996 -444.2892,617.0166 -1893.5848,506.0051 -2544.7999,772.1098 -1302.4301,532.2095 -2373.8253,-384.7997 -1873.8253,-384.7997 500,0 261.0508,-614.0285 -481.9746,-1364.5777 C 653.36833,1385.8128 1307.0539,761.28273 1807.0539,761.28273 2807.0539,761.28273 2800,200 3800,200 l 1000,0"
           sodipodi:nodetypes="csssssssssc"
           inkscape:connector-curvature="0" />
      </g>
      <g
         id="segment13"
         inkscape:groupmode="layer"
         inkscape:label="segment13"
         style="display:inline">
        <path
           style="fill:none;stroke:#e41a1c;stroke-width:15"
           d="M 2700,320 3700,320 C 3978.0327,320 4257.3705,321.83018 4531.8585,366.08554 4806.3464,410.3409 5076.4814,497.34897 5311.7841,645.45304 5774.2738,936.55298 6066.4646,1437.0974 6253.5266,1950.5598 6561.0916,2794.7884 6632.9087,3718.47 7011.8887,4533.1431 7082.1989,4684.2852 7163.3331,4831.2109 7265.6193,4962.8353 7367.9055,5094.4596 7491.8276,5210.027 7634.3169,5296.5385 7776.8062,5383.05 7936.8521,5439.2961 8101.2453,5466.906 8265.6386,5494.5159 8433.3377,5493.3332 8600,5490 L 9600,5470"
           id="seg13"
           inkscape:path-effect="#path-effect1"
           inkscape:original-d="M 2700,320 3700,320 C 4700,320 4311.7841,645.45304 5311.7841,645.45304 5561.7841,645.45304 5645.095,1571.2385 6253.5266,1950.5598 7549.2325,2758.3563 5252.9467,4382.9244 7011.8887,4533.1431 8008.2617,4618.2362 7600.1999,5509.996 8600,5490 L 9600,5470"
           sodipodi:nodetypes="csssssc"
           inkscape:connector-curvature="0" />
      </g>
      <g
         id="segment14"
         inkscape:groupmode="layer"
         inkscape:label="segment14"
         style="display:none">
        <path
           style="fill:none;stroke:#e41a1c;stroke-width:15"
           d="M 2800,200 3800,200 C 4103.0629,200 4409.2084,206.80752 4702.892,281.62103 4996.5756,356.43454 5274.8797,497.1011 5500,700 5775.351,948.17134 5963.3026,1275.7765 6177.2322,1578.4997 6284.197,1729.8613 6399.1128,1876.6623 6534.1949,2003.5662 6669.2771,2130.4701 6825.547,2237.4066 7000,2300 7203.6621,2373.0735 7426.1223,2383.4512 7640.6206,2355.0175 7855.1188,2326.5838 8062.9201,2260.5662 8265.3581,2184.1669 8670.234,2031.3684 9068.5469,1833.4689 9500,1800 9944.0013,1765.5577 10395.844,1915.7083 10744.447,2192.8352 11093.051,2469.9621 11338.591,2868.8256 11450,3300 11549.772,3686.1372 11543.474,4100.269 11423.672,4480.6689 11303.87,4861.0687 11070.416,5204.0881 10763.551,5458.8239 10456.686,5713.5597 10080.653,5877.7995 9690.7383,5961.6045 9300.824,6045.4095 8898.8188,6050 8500,6050 L 7500,6050"
           id="seg14"
           inkscape:path-effect="#path-effect1"
           inkscape:original-d="m 2800,200 1000,0 c 1000,0 700,500 1700,500 1000,0 500,1600 1500,1600 1000,0 1500,-500 2500,-500 1000,0 950,1500 1950,1500 1000,0 -1950,2750 -2950,2750 l -1000,0"
           sodipodi:nodetypes="cssssssc"
           inkscape:connector-curvature="0" />
      </g>
      <g
         id="segment15"
         inkscape:groupmode="layer"
         inkscape:label="segment15"
         style="display:none">
        <path
           style="fill:none;stroke:#e41a1c;stroke-width:15"
           d="M 2800,200 3800,200 C 4111.3927,200 4425.4469,202.26316 4729.7454,268.35284 5034.0439,334.44252 5329.697,467.07605 5551.9802,685.14851 5735.5685,865.25906 5861.777,1094.5032 5982.3068,1321.6971 6102.8366,1548.891 6222.4225,1780.611 6396.3134,1970.1009 6579.7899,2170.0363 6823.5616,2317.4132 7089.7409,2370.199 7371.2153,2426.018 7664.7451,2375.6789 7935.8568,2281.6465 8206.9684,2187.6142 8460.9492,2051.1337 8720.247,1928.2181 8991.7906,1799.4976 9269.9835,1685.3166 9543.0693,1559.901 9939.8058,1377.6984 10330.663,1170.0472 10756.931,1075.7426 11098.024,1000.2816 11450.66,1000 11800,1000 L 12800,1000"
           id="seg15"
           inkscape:path-effect="#path-effect1"
           inkscape:original-d="m 2800,200 1000,0 c 1000,0 751.9802,485.14851 1751.9802,485.14851 1000,0 -155.6668,1284.95239 844.3332,1284.95239 500,0 17.5058,567.6234 693.4275,400.0981 337.9608,-83.7626 1039.783,-180.5203 1630.5061,-441.9809 590.7231,-261.4606 572.8223,-368.3171 822.8223,-368.3171 499.9997,0 1038.8617,-409.1584 1213.8617,-484.1584 175,-75 543.069,-75.7426 1043.069,-75.7426 l 1000,0"
           sodipodi:nodetypes="cssssssssc"
           inkscape:connector-curvature="0" />
      </g>
    </g>
    <g
       id="segment2X"
       inkscape:groupmode="layer"
       inkscape:label="segment2X"
       style="display:inline">
      <g
         id="segment22"
         inkscape:groupmode="layer"
         inkscape:label="segment22"
         style="display:none">
        <path
           style="fill:none;stroke:#377eb8;stroke-width:15"
           d="M 4800,750 3800,750 C 3536.1408,750 3270.9403,745.33645 3009.8149,783.22037 2748.6895,821.1043 2483.6019,910.49536 2300,1100 2175.7892,1228.2042 2096.9811,1395.3836 2053.5538,1568.5272 2010.1264,1741.6708 2000.321,1921.4936 2000,2100 1999.6788,2278.6383 2008.8585,2458.6673 2052.1714,2631.9756 2095.4843,2805.2838 2174.7702,2972.6059 2300,3100 2480.4876,3283.6069 2740.7329,3369.1586 2996.8296,3395.6495 3252.9262,3422.1405 3511.114,3395.9918 3768.4952,3389.4984 4161.6584,3379.5793 4570.6111,3412.9697 4933.3079,3260.8951 5123.3409,3181.2164 5292.2319,3052.0352 5419.6842,2890.118 5547.1365,2728.2009 5632.9664,2533.9487 5667.8707,2330.8651 5737.6792,1924.698 5593.4066,1489.4089 5300,1200 5108.8062,1011.4112 4860.8102,885.63705 4600.3499,820.20593 4339.8897,754.77481 4068.5531,750 3800,750 L 2800,750"
           id="seg22"
           inkscape:path-effect="#path-effect1"
           inkscape:original-d="m 4800,750 -1000,0 c -1000,0 -2500,350 -1500,350 1000,0 -1300,1000 -300,1000 1000,0 -700,1000 300,1000 1000,0 468.4952,289.4984 1468.4952,289.4984 500,0 1031.9365,418.7713 1164.8127,-128.6033 C 5066.1841,2713.5205 4800,1200 5300,1200 6300,1200 4800,750 3800,750 l -1000,0"
           sodipodi:nodetypes="cssssssssc"
           inkscape:connector-curvature="0" />
      </g>
      <g
         id="segment23"
         inkscape:groupmode="layer"
         inkscape:label="segment23"
         style="display:none">
        <path
           style="fill:none;stroke:#377eb8;stroke-width:15"
           d="M 4800,750 3800,750 C 3536.0349,750 3270.7428,745.0534 3009.4498,782.51682 2878.8032,801.24853 2749.242,831.67258 2627.3761,882.349 2505.5103,933.02543 2391.2165,1004.6116 2300,1100 2176.8419,1228.7908 2100.0751,1396.5575 2057.4421,1569.5819 2014.8091,1742.6062 2004.4581,1921.8565 2000,2100 1995.3346,2286.4261 1997.1318,2474.8637 2039.2602,2656.5274 2081.3886,2838.191 2167.0334,3014.3831 2307.4257,3137.1287 2458.9692,3269.6238 2662.2128,3329.8797 2862.7316,3347.5599 3063.2504,3365.24 3264.841,3344.083 3465.8416,3333.1683 4044.0738,3301.7692 4623.0667,3355.251 5200.495,3399.0099 5489.8708,3420.9395 5781.7452,3440.8252 6061.3766,3518.4498 6341.0079,3596.0745 6611.3569,3736.9011 6794.0594,3962.3763 6915.7664,4112.5762 6993.3287,4292.9019 7067.8493,4471.2815 7142.3698,4649.6612 7216.6308,4830.9032 7333.1683,4985.1485 7517.0533,5228.5328 7797.0231,5387.4777 8091.5421,5466.9018 8386.0611,5546.3259 8694.9596,5550 9000,5550 L 10000,5550"
           id="seg23"
           inkscape:path-effect="#path-effect1"
           inkscape:original-d="m 4800,750 -1000,0 c -1000,0 -2500,350 -1500,350 1000,0 -1300,1000 -300,1000 1000,0 -692.5743,1037.1287 307.4257,1037.1287 1000,0 158.4159,196.0396 1158.4159,196.0396 500,0 1258.4158,-45.0495 1734.6534,65.8416 476.2377,110.8911 1093.5644,563.3664 1593.5644,563.3664 1000,0 -460.8911,1022.7722 539.1089,1022.7722 C 8333.1683,4985.1485 8000,5550 9000,5550 l 1000,0"
           sodipodi:nodetypes="csssssssssc"
           inkscape:connector-curvature="0" />
      </g>
      <g
         id="segment24"
         inkscape:groupmode="layer"
         inkscape:label="segment24"
         style="display:none">
        <path
           style="fill:none;stroke:#377eb8;stroke-width:15"
           d="M 4800,750 3800,750 C 3536.1815,750 3271.0162,745.44595 3009.9556,783.49263 2748.895,821.53932 2484.052,910.98924 2300,1100 2175.3794,1227.9782 2095.7802,1394.9292 2052.0443,1568.1224 2008.3085,1741.3157 1998.7152,1921.3745 2000,2100 2001.2811,2278.1116 2013.3669,2457.3425 2057.5612,2629.8889 2101.7554,2802.4353 2179.4811,2968.849 2300,3100 2479.7415,3295.5982 2742.6318,3399.166 3006.1443,3432.734 3269.6568,3466.302 3536.8112,3436.0179 3800,3400 4768.5943,3267.4461 5732.0359,3055.2715 6634.2476,2678.7619 7079.7377,2492.8507 7508.3105,2267.7505 7956.7818,2089.1507 8405.2531,1910.5509 8880.8902,1778.0062 9363.4794,1789.4984 9821.6651,1800.4095 10277.577,1945.1721 10651.187,2210.6314 11024.798,2476.0906 11313.261,2862.5579 11450,3300 11569.809,3683.2798 11571.754,4102.8662 11453.106,4486.5068 11334.458,4870.1475 11095.914,5214.2327 10784.33,5467.5568 10472.746,5720.8809 10092.43,5881.9598 9699.3074,5963.8882 9306.185,6045.8166 8901.5688,6050 8500,6050 L 7500,6050"
           id="seg24"
           inkscape:path-effect="#path-effect1"
           inkscape:original-d="m 4800,750 -1000,0 c -1000,0 -2500,350 -1500,350 1000,0 -1300,1000 -300,1000 1000,0 -700,1000 300,1000 1000,0 500,300 1500,300 500,0 1693.3777,-318.6127 2834.2476,-721.2381 C 7775.1175,2276.1365 8863.4794,1789.4984 9363.4794,1789.4984 10363.479,1789.4984 10450,3300 11450,3300 c 1000,0 -1950,2750 -2950,2750 l -1000,0"
           sodipodi:nodetypes="csssssssssc"
           inkscape:connector-curvature="0" />
      </g>
      <g
         id="segment25"
         inkscape:groupmode="layer"
         inkscape:label="segment25"
         style="display:inline">
        <path
           style="fill:none;stroke:#377eb8;stroke-width:15"
           d="M 5000,670 4000,670 C 3722.6914,670 3445.4699,658.23476 3168.1652,659.70595 3029.5128,660.44155 2890.4051,666.74712 2753.8931,691.02674 2617.3812,715.30635 2482.8725,758.31199 2364.7809,830.97143 2168.3818,951.81191 2027.126,1150.5634 1949.2733,1367.621 1871.4206,1584.6785 1853.3152,1819.5129 1866.4888,2049.7334 1879.1157,2270.3995 1920.2961,2490.7496 2004.201,2695.2317 2088.1059,2899.7138 2215.9129,3088.1365 2386.0191,3229.2635 2661.9189,3458.1612 3031.3916,3548.7894 3389.8643,3552.2753 3748.337,3555.7613 4102.1531,3479.5669 4453.5745,3408.7302 4979.185,3302.7818 5508.0972,3207.7725 6022.4115,3056.2066 6844.6773,2813.889 7617.0661,2430.913 8405.8602,2095.2901 9040.9256,1825.0771 9688.5546,1584.8482 10320.533,1307.4921 10540.349,1211.0215 10763.668,1113.0381 11001.831,1082.9746 11239.995,1052.911 11480.451,1101.1293 11711.568,1166.019 L 12260,1320"
           id="seg25"
           inkscape:path-effect="#path-effect1"
           inkscape:original-d="M 5000,670 4000,670 C 3000,670 -2248.3556,2260.2591 2364.7809,830.97143 2846.0855,681.84887 2070.143,1388.5273 1866.4888,2049.7334 -36662.356,127141.71 248522.48,433.00223 2386.0191,3229.2635 1386.0836,3240.6233 3453.5745,3408.7302 4453.5745,3408.7302 4953.5745,3408.7302 7409.9467,2827.8489 6022.4115,3056.2066 2374.6182,3656.5529 6447.7512,2695.1807 8405.8602,2095.2901 10363.969,1495.3995 10070.533,1307.4921 10320.533,1307.4921 11320.533,1307.4921 10748.796,895.70547 11711.568,1166.019 L 12260,1320"
           sodipodi:nodetypes="csssssssssc"
           inkscape:connector-curvature="0" />
      </g>
    </g>
    <g
       id="segment3X"
       inkscape:groupmode="layer"
       inkscape:label="segment3X"
       style="display:inline">
      <g
         id="segment31"
         inkscape:groupmode="layer"
         inkscape:label="segment31"
         style="display:none">
        <path
           style="fill:none;stroke:#4daf4a;stroke-width:15"
           d="M 8000,5550 9000,5550 C 9238.57,5550 9478.7157,5547.3138 9712.8367,5501.4557 9946.9578,5455.5977 10174.001,5366.2927 10368.119,5227.6065 10562.237,5088.9203 10721.554,4902.2108 10828.949,4689.1801 10936.343,4476.1494 10992.12,4238.4398 11000,4000 11009.831,3702.5206 10945.252,3401.9476 10807.396,3138.1552 10669.54,2874.3628 10457.982,2648.4443 10200,2500 9965.0217,2364.7924 9695.2891,2295.0378 9424.5699,2280.6479 9153.8508,2266.2579 8881.9432,2306.0016 8620.8894,2379.1237 8098.7817,2525.3677 7624.2222,2801.1174 7147.6292,3059.6572 6633.6849,3338.4591 6104.313,3602.4402 5535.2105,3736.573 4900.2885,3886.219 4240.0574,3868.9644 3588.1161,3891.1531 3290.0263,3901.2985 2990.139,3919.7761 2694.5969,3879.5845 2399.0549,3839.393 2103.411,3735.1732 1886.3218,3530.6427 1701.9788,3356.9641 1585.0075,3120.5661 1522.8071,2875.051 1460.6066,2629.5359 1450.0765,2373.8485 1454.1525,2120.6096 1457.9278,1886.0525 1474.2534,1649.9136 1535.0059,1423.3294 1595.7584,1196.7451 1703.3247,978.8042 1870.0635,813.79067 2110.5569,575.78573 2451.336,466.12035 2786.526,419.95683 3121.716,373.7933 3461.646,380 3800,380 L 4800,380"
           id="seg31"
           inkscape:path-effect="#path-effect1"
           inkscape:original-d="m 8000,5550 1000,0 c 1000,0 1000,-1550 2000,-1550 1000,0 -1800,-1500 -800,-1500 500,0 -735.0898,309.4222 -3052.3708,559.6572 -579.3202,62.5588 -1003.6234,492.4732 -1612.4187,676.9158 -608.7953,184.4427 -1402.0828,123.4135 -1947.0944,154.5801 -1090.0232,62.3333 -1951.7943,-360.5104 -1701.7943,-360.5104 500,0 -138.0867,-719.868 -432.1693,-1410.0331 -294.0826,-690.165 -84.089,-1306.81893 415.911,-1306.81893 C 2870.0635,813.79067 2800,380 3800,380 l 1000,0"
           sodipodi:nodetypes="cssssssssssc"
           inkscape:connector-curvature="0" />
      </g>
      <g
         id="segment32"
         inkscape:groupmode="layer"
         inkscape:label="segment32"
         style="display:inline">
        <path
           style="fill:none;stroke:#4daf4a;stroke-width:15"
           d="M 7600,5490 8600,5490 C 9021.5541,5490 9449.0474,5486.2803 9854.8935,5372.2767 10260.74,5258.273 10646.076,5024.5542 10870.737,4667.8539 11023.46,4425.3726 11095.712,4134.8354 11084.641,3848.4811 11073.57,3562.1268 10980.534,3280.7193 10827.446,3038.4684 10682.782,2809.5482 10484.361,2614.46 10251.565,2476.1206 10018.768,2337.7812 9751.8659,2256.6583 9481.3237,2244.8721 8982.7576,2223.152 8507.4904,2430.621 8032.8483,2584.747 7795.5273,2661.8099 7552.1742,2726.5686 7303.1824,2742.7882 7054.1907,2759.0078 6797.8058,2724.5312 6575.2299,2611.7485 6261.5572,2452.8056 6043.1082,2156.2407 5854.021,1859.7623 5664.9338,1563.2838 5487.6026,1249.7479 5218.2287,1023.7144 5052.3523,884.52634 4854.5109,784.28029 4644.8834,730.0161 4435.2559,675.7519 4216.5371,670 4000,670 L 3000,670"
           id="seg32"
           inkscape:path-effect="#path-effect1"
           inkscape:original-d="M 7600,5490 8600,5490 C 9600,5490 9870.7365,4667.8539 10870.737,4667.8539 11370.737,4667.8539 11409.649,3663.9089 10827.446,3038.4684 10245.243,2413.0279 8987.41,2167.0951 9481.3237,2244.8721 13849.364,2932.7115 6236.6658,657.62723 6575.2299,2611.7485 6745.9431,3597.0693 4218.2287,1023.7144 5218.2287,1023.7144 6218.2287,1023.7144 5000,670 4000,670 L 3000,670"
           sodipodi:nodetypes="csssssssc"
           inkscape:connector-curvature="0" />
      </g>
      <g
         id="segment33"
         inkscape:groupmode="layer"
         inkscape:label="segment33"
         style="display:none">
        <path
           style="fill:none;stroke:#4daf4a;stroke-width:15"
           d="M 8000,5550 9000,5550 C 9238.8246,5550 9479.2082,5547.3636 9713.6388,5501.7621 9948.0694,5456.1606 10175.547,5367.2989 10370.177,5228.8931 10564.808,5090.4873 10724.718,4903.8275 10832.062,4690.4863 10939.406,4477.1451 10994.43,4238.7597 11000,4000 11006.915,3703.5882 10937.904,3405.3963 10799.149,3143.3755 10660.395,2881.3546 10451.974,2656.2589 10200,2500 9868.8719,2294.6546 9468.5696,2211.8847 9079.9671,2240.1805 8691.3645,2268.4763 8314.5897,2404.2104 7980.8763,2605.3271 7576.1619,2849.2334 7220.7445,3206.484 7074.4508,3655.797 6990.7038,3913.0099 6979.4464,4194.3007 7048.724,4455.7823 7118.0017,4717.2639 7268.0719,4956.2228 7471.5333,5134.4795 7674.9948,5312.7362 7928.7132,5428.5648 8192.6862,5487.6436 8456.6591,5546.7223 8729.4967,5550 9000,5550 L 10000,5550"
           id="seg33"
           inkscape:path-effect="#path-effect1"
           inkscape:original-d="m 8000,5550 1000,0 c 1000,0 1000,-1550 2000,-1550 1000,0 -1800,-1500 -800,-1500 500,0 -1269.1237,-519.6729 -2219.1237,105.3271 -950,625 -1406.4255,1050.4699 -906.4255,1050.4699 C 8074.4508,3655.797 8000,5550 9000,5550 l 1000,0"
           sodipodi:nodetypes="cssssssc"
           inkscape:connector-curvature="0" />
      </g>
      <g
         id="segment35"
         inkscape:groupmode="layer"
         inkscape:label="segment35"
         style="display:none">
        <path
           style="fill:none;stroke:#4daf4a;stroke-width:15"
           d="M 8000,5550 9000,5550 C 9299.4977,5550 9602.3288,5545.2783 9892.3537,5470.5491 10182.379,5395.8198 10456.699,5250.0097 10665.037,5034.8489 10873.375,4819.6882 11011.852,4538.9228 11060.13,4243.3418 11108.408,3947.7608 11068.401,3640.6858 10962.871,3360.396 10861.543,3091.2663 10699.75,2843.9272 10487.121,2650.3118 10274.491,2456.6964 10010.73,2317.8882 9728.7129,2261.6337 9465.8042,2209.1908 9192.3877,2228.4386 8930.588,2286.1631 8668.7883,2343.8875 8416.9082,2439.2366 8168.3169,2539.604 7806.5515,2685.6648 7449.3116,2843.1055 7099.0099,3014.8515 6434.3516,3340.7202 5779.4285,3723.3569 5049.505,3846.5347 4438.226,3949.6907 3812.9869,3863.7189 3193.0693,3861.3861 2956.2701,3860.495 2718.3409,3871.8043 2483.5264,3841.1977 2248.7119,3810.5911 2013.0812,3734.3249 1834.1584,3579.2079 1681.3517,3446.7322 1578.3867,3263.5754 1517.3952,3070.7549 1456.4037,2877.9345 1435.0855,2674.7931 1425.7426,2472.7723 1409.1236,2113.4235 1429.9742,1749.098 1529.703,1403.4654 1627.7658,1063.6067 1809.5517,737.40768 2094.0595,527.22773 2292.3071,380.77239 2531.6549,296.92707 2774.8383,256.76276 3018.0216,216.59844 3266.1846,218.32362 3512.3762,230.19803 3908.265,249.2927 4302.8599,294.36915 4693.0693,363.8614 4899.9602,400.70653 5106.8018,444.75585 5302.2182,522.0466 5497.6346,599.33735 5682.3453,711.58985 5821.7822,868.8119 5970.9792,1037.0389 6061.641,1247.849 6149.4814,1454.8372 6237.3219,1661.8255 6327.1981,1872.8413 6475.2475,2042.0792 6604.1706,2189.4535 6773.8383,2299.4203 6958.3956,2364.8339 7142.9529,2430.2476 7341.985,2451.7462 7537.1287,2435.6436 7810.3143,2413.1013 8073.1246,2318.44 8319.3817,2198.0407 8565.6388,2077.6415 8798.1231,1931.249 9037.1287,1797.0297 9492.1861,1541.4813 9971.0993,1330.0183 10460.148,1147.7723 10701.102,1057.9797 10946.967,977.13188 11201.324,939.39428 11455.681,901.65667 11714.482,912.51049 11970.792,933.16832 L 12800,1000"
           id="seg35"
           inkscape:path-effect="#path-effect1"
           inkscape:original-d="m 8000,5550 1000,0 c 1000,0 962.8712,-2189.604 1962.871,-2189.604 1000,0 -1995.6287,-612.1856 -1234.1581,-1098.7623 558.8011,-357.0716 -973.7624,10.6435 -1560.396,277.9703 -586.6337,267.3267 -89.109,-81.6832 -1069.307,475.2475 -980.198,556.9307 -1113.8614,831.6832 -2049.5049,831.6832 -935.6436,0 -905.9406,37.1287 -1856.4357,14.8514 -950.495,-22.2772 -987.6237,178.2178 -1358.9109,-282.1782 -371.2871,-460.396 -438.1188,-594.0594 -408.4158,-1106.4356 29.7029,-512.3763 -133.6634,-438.1188 103.9604,-1069.3069 237.6237,-631.18813 -7.5883,-1219.40254 564.3565,-876.23767 930.1702,558.09887 846.5346,-319.3069 1418.3167,-297.0297 571.7822,22.2772 720.2971,22.27717 1180.6931,133.66337 460.3961,111.3861 898.5149,29.703 1128.7129,504.9505 230.198,475.2475 245.0495,905.9406 653.4653,1173.2673 408.4159,267.3267 497.5248,430.6931 1061.8812,393.5644 564.3565,-37.1287 1069.3069,-460.396 1500,-638.6139 430.6931,-178.2178 1116.6203,-616.0734 1423.0193,-649.2574 1079.598,-116.9238 513.876,-294.94049 1510.644,-214.60398 L 12800,1000"
           sodipodi:nodetypes="csssssssssssssssssssc"
           inkscape:connector-curvature="0" />
      </g>
    </g>
    <g
       id="segment4X"
       inkscape:groupmode="layer"
       inkscape:label="segment4X"
       style="display:inline">
      <g
         id="segment41"
         inkscape:groupmode="layer"
         inkscape:label="segment41"
         style="display:inline">
        <path
           style="fill:none;stroke:#984ea3;stroke-width:15"
           d="M 10920,5850 9920,5850 C 9479.1935,5850 9037.7007,5859.487 8598.0504,5827.5815 8158.4001,5795.676 7709.6754,5712.9092 7336.0508,5478.9968 7081.4057,5319.5731 6873.8831,5096.3918 6673.8683,4872.2175 6473.8535,4648.0433 6275.9188,4418.1183 6033.981,4240 5705.751,3998.3521 5308.6207,3862.4795 4905.9512,3799.3449 4503.2818,3736.2104 4092.9845,3742.7021 3685.9616,3764.1732 3347.8045,3782.0115 3006.9295,3809.9629 2671.9715,3760.2482 2337.0135,3710.5335 2002.0194,3573.8825 1783.26,3315.4008 1651.85,3160.1294 1568.5044,2968.0468 1523.4453,2769.6849 1478.3862,2571.3229 1470.2224,2366.2021 1477.194,2162.9063 1486.8078,1882.5624 1525.5357,1600.762 1623.6154,1337.9588 1721.6951,1075.1556 1881.9917,831.31015 2105.2672,661.50672 2325.7036,493.86243 2597.4921,404.81853 2871.122,362.11608 3144.7519,319.41363 3423.0581,320 3700,320 L 4700,320"
           id="seg41"
           inkscape:path-effect="#path-effect1"
           inkscape:original-d="M 10920,5850 9920,5850 C 8920,5850 6336.0508,5478.9968 7336.0508,5478.9968 8336.0508,5478.9968 5033.981,4240 6033.981,4240 6533.981,4240 4681.0922,3985.6236 3685.9616,3764.1732 2690.8311,3542.7228 2060.8872,3595.7348 1783.26,3315.4008 1505.6327,3035.0667 2299.2139,2189.3324 1477.194,2162.9063 910.67367,2144.694 1571.8513,661.50674 2105.2672,661.50672 3105.2672,661.50668 2700,320 3700,320 L 4700,320"
           sodipodi:nodetypes="cssssssssc"
           inkscape:connector-curvature="0" />
      </g>
      <g
         id="segment42"
         inkscape:groupmode="layer"
         inkscape:label="segment42"
         style="display:none">
        <path
           style="fill:none;stroke:#984ea3;stroke-width:15"
           d="M 9500,6050 8500,6050 C 8224.5399,6050 7944.7147,6038.0434 7684.1058,5948.8174 7423.4969,5859.5914 7189.3398,5700.0717 7000,5500 6739.147,5224.3617 6560.1733,4879.6102 6435.1725,4521.2869 6310.1718,4162.9636 6236.4952,3789.1326 6163.8754,3416.6448 6091.2557,3044.1571 6018.9359,2670.1567 5896.4895,2310.9526 5774.0432,1951.7484 5598.9079,1605.3438 5342.0063,1326.019 5149.6514,1116.8747 4909.5711,949.68739 4641.2648,856.12731 4372.9585,762.56723 4084.1509,750 3800,750 L 2800,750"
           id="seg42"
           inkscape:path-effect="#path-effect1"
           inkscape:original-d="m 9500,6050 -1000,0 C 7500,6050 6000,5500 7000,5500 8000,5500 4342.0063,1326.019 5342.0063,1326.019 6342.0063,1326.019 4800,750 3800,750 l -1000,0"
           sodipodi:nodetypes="cssssc"
           inkscape:connector-curvature="0" />
      </g>
      <g
         id="segment44"
         inkscape:groupmode="layer"
         inkscape:label="segment44"
         style="display:none">
        <path
           style="fill:none;stroke:#984ea3;stroke-width:15"
           d="M 9500,6050 8500,6050 C 8257.4877,6050 8013.5783,6050.0373 7774.5398,6009.1376 7535.5012,5968.2379 7299.1055,5883.7351 7111.3861,5730.198 6846.1022,5513.2203 6704.1882,5183.9285 6571.7822,4867.8217 6467.8816,4619.7688 6363.2541,4369.5008 6312.913,4105.3203 6262.5719,3841.1398 6269.9703,3558.5016 6383.9054,3314.8946 6508.0251,3049.5117 6747.145,2853.4129 7005.3223,2714.9273 7263.4996,2576.4416 7544.6995,2487.4492 7815.9466,2376.7297 8092.2959,2263.9276 8358.8937,2128.2929 8635.4431,2015.9824 8911.9926,1903.6719 9201.8545,1814.2306 9500,1800 9942.7406,1778.8679 10388.974,1930.1481 10737.171,2204.419 11085.368,2478.6899 11335.019,2871.9285 11450,3300 11553.59,3685.664 11548.836,4100.8211 11429.247,4481.8277 11309.658,4862.8343 11075.234,5206.0446 10767.471,5460.5045 10459.709,5714.9644 10082.864,5878.5976 9692.3456,5962.0425 9301.8273,6045.4873 8899.3339,6050 8500,6050 L 7500,6050"
           id="seg44"
           inkscape:path-effect="#path-effect1"
           inkscape:original-d="m 9500,6050 -1000,0 c -1000,0 -2388.6139,-319.802 -1388.6139,-319.802 500,0 134.7243,-126.488 -539.6039,-862.3763 C 4834.806,2972.2752 5835.7487,3523.0478 6383.9054,3314.8946 6932.062,3106.7414 7027.4328,2139.6624 7815.9466,2376.7297 9392.9743,2850.8644 9250,1800 9500,1800 c 1000,0 950,1500 1950,1500 1000,0 -1950,2750 -2950,2750 l -1000,0"
           sodipodi:nodetypes="cssssssssc"
           inkscape:connector-curvature="0" />
      </g>
      <g
         id="segment45"
         inkscape:groupmode="layer"
         inkscape:label="segment45"
         style="display:none">
        <path
           style="fill:none;stroke:#984ea3;stroke-width:15"
           d="M 9500,6050 8500,6050 C 8249.3654,6050 7997.1168,6048.3746 7750.7999,6002.053 7504.483,5955.7315 7263.3105,5863.5286 7066.8317,5707.9208 6825.9975,5517.1843 6665.0375,5243.349 6540.3775,4962.5619 6429.1309,4711.9874 6341.8143,4448.4824 6311.0577,4176.0537 6280.301,3903.6249 6308.1284,3621.1207 6418.8119,3370.297 6567.5312,3033.2791 6855.5301,2774.2736 7172.5738,2586.7054 7489.6175,2399.1373 7838.8571,2274.2667 8179.672,2134.4678 8825.4848,1869.5617 9447.4821,1547.931 10100,1300 10370.923,1197.0601 10648.352,1108.5786 10933.766,1058.235 11219.18,1007.8915 11510.18,1000 11800,1000 L 12800,1000"
           id="seg45"
           inkscape:path-effect="#path-effect1"
           inkscape:original-d="m 9500,6050 -1000,0 c -1000,0 -2433.1683,-342.0792 -1433.1683,-342.0792 250,0 -236.3243,-292.2029 -526.4542,-745.3589 -290.13,-453.1559 -384.0656,-1067.2649 -121.5656,-1592.2649 262.5,-525 968.6881,-849.5049 1760.8601,-1235.8292 C 8971.8441,1748.1436 9850,1300 10100,1300 c 1000,0 700,-300 1700,-300 l 1000,0"
           sodipodi:nodetypes="csssssssc"
           inkscape:connector-curvature="0" />
      </g>
    </g>
  </g>
</svg>
