<?xml version="1.0" encoding="UTF-8" standalone="no"?>
<svg
   xmlns:dc="http://purl.org/dc/elements/1.1/"
   xmlns:cc="http://creativecommons.org/ns#"
   xmlns:rdf="http://www.w3.org/1999/02/22-rdf-syntax-ns#"
   xmlns:svg="http://www.w3.org/2000/svg"
   xmlns="http://www.w3.org/2000/svg"
   xmlns:xlink="http://www.w3.org/1999/xlink"
   xmlns:sodipodi="http://sodipodi.sourceforge.net/DTD/sodipodi-0.dtd"
   xmlns:inkscape="http://www.inkscape.org/namespaces/inkscape"
   width="1200"
   height="650"
   id="svg2"
   version="1.1"
   inkscape:version="0.48.3.1 r9886"
   sodipodi:docname="seg.svg"
   enable-background="new">
  <metadata
     id="metadata65">
    <rdf:RDF>
      <cc:Work
         rdf:about="">
        <dc:format>image/svg+xml</dc:format>
        <dc:type
           rdf:resource="http://purl.org/dc/dcmitype/StillImage" />
        <dc:title />
      </cc:Work>
    </rdf:RDF>
  </metadata>
  <sodipodi:namedview
     pagecolor="#ffffff"
     bordercolor="#666666"
     borderopacity="1"
     objecttolerance="10"
     gridtolerance="10"
     guidetolerance="10"
     inkscape:pageopacity="0"
     inkscape:pageshadow="2"
     inkscape:window-width="1172"
     inkscape:window-height="944"
     id="namedview63"
     showgrid="false"
     inkscape:zoom="1.3466667"
     inkscape:cx="719.41795"
     inkscape:cy="320.13249"
     inkscape:window-x="769"
     inkscape:window-y="44"
     inkscape:window-maximized="0"
     inkscape:current-layer="segment41"
     inkscape:object-nodes="true" />
  <defs
     id="defs4">
    <inkscape:path-effect
       effect="spiro"
       id="path-effect3029"
       is_visible="true" />
    <inkscape:path-effect
       effect="spiro"
       id="path-effect1"
       is_visible="true" />
    <marker
       id="M_dot"
       markerWidth="2"
       markerHeight="2"
       refX="1"
       refY="1">
      <circle
         cx="1"
         cy="1"
         r="1"
         fill="black"
         id="circle8" />
    </marker>
  </defs>
  <g
     id="background"
     inkscape:groupmode="layer"
     inkscape:label="background"
     style="display:inline"
     sodipodi:insensitive="true">
    <image
       sodipodi:absref="/home/kal5_mrt219/Desktop/U/der_weg/preprocessing/./bg.png"
       xlink:href="./bg.png"
       id="image14" />
  </g>
  <g
     id="log-data"
     inkscape:groupmode="layer"
     inkscape:label="log-data"
     style="display:none"
     sodipodi:insensitive="true">
    <image
       sodipodi:absref="/home/kal5_mrt219/Desktop/U/der_weg/preprocessing/./log.svg"
       xlink:href="./log.svg"
       id="image18" />
  </g>
  <g
     id="rt-position"
     inkscape:groupmode="layer"
     inkscape:label="rt-position"
     style="display:inline"
     sodipodi:insensitive="true">
    <image
       sodipodi:absref="/home/kal5_mrt219/Desktop/U/der_weg/preprocessing/../data/PositionSVG/Position.svg"
       xlink:href="../data/PositionSVG/Position.svg"
       id="image21" />
  </g>
  <g
     id="segments"
     inkscape:groupmode="layer"
     inkscape:label="segments"
     transform="matrix(0.1,0,0,-0.1,0,650)"
     style="display:inline">
    <g
       id="segment1X"
       inkscape:groupmode="layer"
       inkscape:label="segment1X"
       style="display:inline">
      <g
         id="segment11"
         inkscape:groupmode="layer"
         inkscape:label="segment11"
         style="display:none">
        <path
           style="fill:none;stroke:#e41a1c;stroke-width:15"
           d="M 2800,200 3800,200 C 4130.6849,200 4464.8989,207.53762 4784.8719,291.02287 5104.8448,374.50813 5407.2712,531.69481 5648.3868,758.00384 5980.6526,1069.8657 6186.3478,1496.3238 6311.0188,1934.6336 6365.9908,2127.9005 6406.7738,2326.476 6411.3704,2527.3563 6415.9669,2728.2366 6383.2595,2932.1572 6296.9936,3113.6296 6195.8766,3326.3432 6023.8552,3501.2209 5823.3639,3624.8129 5622.8726,3748.4048 5394.707,3822.6423 5162.6344,3862.8171 4698.4891,3943.1668 4223.22,3890.3372 3752.1937,3885.7394 3425.3614,3882.5491 3097.0753,3902.6568 2772.5686,3863.6066 2448.0619,3824.5564 2120.6778,3720.2925 1878.3684,3500.9397 1694.2748,3334.2873 1569.1437,3109.3163 1495.9751,2872.0194 1422.8065,2634.7224 1399.2365,2384.667 1396.3938,2136.362 1393.5899,1891.4426 1410.8278,1644.7281 1472.7557,1407.7506 1534.6836,1170.7732 1642.9324,943.09995 1807.0539,761.28273 2045.5894,497.02818 2387.9395,344.8107 2736.4719,272.32068 3085.0043,199.83067 3444.0089,200 3800,200 L 4800,200"
           id="seg11"
           inkscape:path-effect="#path-effect1"
           inkscape:original-d="m 2800,200 1000,0 c 1000,0 848.3868,558.00384 1848.3868,558.00384 125,0 556.0209,768.81076 662.632,1176.62976 106.6111,407.819 208.1193,870.4877 -14.0252,1178.996 -444.2892,617.0166 -1893.5848,506.0051 -2544.7999,772.1098 -1302.4301,532.2095 -2373.8253,-384.7997 -1873.8253,-384.7997 500,0 261.0508,-614.0285 -481.9746,-1364.5777 C 653.36833,1385.8128 1307.0539,761.28273 1807.0539,761.28273 2807.0539,761.28273 2800,200 3800,200 l 1000,0"
           sodipodi:nodetypes="csssssssssc"
           inkscape:connector-curvature="0" />
      </g>
      <g
         id="segment13"
         inkscape:groupmode="layer"
         inkscape:label="segment13"
         style="display:inline">
        <path
           style="fill:none;stroke:#e41a1c;stroke-width:15"
           d="M 2800,380 3800,380 C 4160.7971,380 4528.3676,403.38132 4863.1398,537.92539 5197.912,672.46947 5486.3189,901.50851 5745.0495,1152.9703 6116.1619,1513.6567 6447.8186,1924.192 6657.1745,2397.4669 6953.0692,3066.3734 6993.6312,3832.3988 7332.422,4480.6351 7488.3715,4779.0261 7717.0395,5047.2586 8016.0541,5202.0092 8165.5614,5279.3845 8329.2128,5327.9722 8495.9043,5351.4951 8662.5957,5375.0181 8831.6907,5373.3662 9000,5370 L 10000,5350"
           id="seg13"
           inkscape:path-effect="#path-effect1"
           inkscape:original-d="M 2800,380 3800,380 C 4800,380 4745.0495,1152.9703 5745.0495,1152.9703 6245.0495,1152.9703 7779.0601,2416.5637 6657.1745,2397.4669 5870.3395,2384.0733 6832.422,4480.6351 7332.422,4480.6351 8332.422,4480.6351 8000.1999,5389.996 9000,5370 L 10000,5350"
           sodipodi:nodetypes="csssssc"
           inkscape:connector-curvature="0" />
      </g>
      <g
         id="segment14"
         inkscape:groupmode="layer"
         inkscape:label="segment14"
         style="display:none">
        <path
           style="fill:none;stroke:#e41a1c;stroke-width:15"
           d="M 2800,200 3800,200 C 4103.0629,200 4409.2084,206.80752 4702.892,281.62103 4996.5756,356.43454 5274.8797,497.1011 5500,700 5775.351,948.17134 5963.3026,1275.7765 6177.2322,1578.4997 6284.197,1729.8613 6399.1128,1876.6623 6534.1949,2003.5662 6669.2771,2130.4701 6825.547,2237.4066 7000,2300 7203.6621,2373.0735 7426.1223,2383.4512 7640.6206,2355.0175 7855.1188,2326.5838 8062.9201,2260.5662 8265.3581,2184.1669 8670.234,2031.3684 9068.5469,1833.4689 9500,1800 9944.0013,1765.5577 10395.844,1915.7083 10744.447,2192.8352 11093.051,2469.9621 11338.591,2868.8256 11450,3300 11549.772,3686.1372 11543.474,4100.269 11423.672,4480.6689 11303.87,4861.0687 11070.416,5204.0881 10763.551,5458.8239 10456.686,5713.5597 10080.653,5877.7995 9690.7383,5961.6045 9300.824,6045.4095 8898.8188,6050 8500,6050 L 7500,6050"
           id="seg14"
           inkscape:path-effect="#path-effect1"
           inkscape:original-d="m 2800,200 1000,0 c 1000,0 700,500 1700,500 1000,0 500,1600 1500,1600 1000,0 1500,-500 2500,-500 1000,0 950,1500 1950,1500 1000,0 -1950,2750 -2950,2750 l -1000,0"
           sodipodi:nodetypes="cssssssc"
           inkscape:connector-curvature="0" />
      </g>
      <g
         id="segment15"
         inkscape:groupmode="layer"
         inkscape:label="segment15"
         style="display:none">
        <path
           style="fill:none;stroke:#e41a1c;stroke-width:15"
           d="M 2800,200 3800,200 C 4111.3927,200 4425.4469,202.26316 4729.7454,268.35284 5034.0439,334.44252 5329.697,467.07605 5551.9802,685.14851 5735.5685,865.25906 5861.777,1094.5032 5982.3068,1321.6971 6102.8366,1548.891 6222.4225,1780.611 6396.3134,1970.1009 6579.7899,2170.0363 6823.5616,2317.4132 7089.7409,2370.199 7371.2153,2426.018 7664.7451,2375.6789 7935.8568,2281.6465 8206.9684,2187.6142 8460.9492,2051.1337 8720.247,1928.2181 8991.7906,1799.4976 9269.9835,1685.3166 9543.0693,1559.901 9939.8058,1377.6984 10330.663,1170.0472 10756.931,1075.7426 11098.024,1000.2816 11450.66,1000 11800,1000 L 12800,1000"
           id="seg15"
           inkscape:path-effect="#path-effect1"
           inkscape:original-d="m 2800,200 1000,0 c 1000,0 751.9802,485.14851 1751.9802,485.14851 1000,0 -155.6668,1284.95239 844.3332,1284.95239 500,0 17.5058,567.6234 693.4275,400.0981 337.9608,-83.7626 1039.783,-180.5203 1630.5061,-441.9809 590.7231,-261.4606 572.8223,-368.3171 822.8223,-368.3171 499.9997,0 1038.8617,-409.1584 1213.8617,-484.1584 175,-75 543.069,-75.7426 1043.069,-75.7426 l 1000,0"
           sodipodi:nodetypes="cssssssssc"
           inkscape:connector-curvature="0" />
      </g>
    </g>
    <g
       id="segment2X"
       inkscape:groupmode="layer"
       inkscape:label="segment2X"
       style="display:inline">
      <g
         id="segment22"
         inkscape:groupmode="layer"
         inkscape:label="segment22"
         style="display:none">
        <path
           style="fill:none;stroke:#377eb8;stroke-width:15"
           d="M 4800,750 3800,750 C 3536.1408,750 3270.9403,745.33645 3009.8149,783.22037 2748.6895,821.1043 2483.6019,910.49536 2300,1100 2175.7892,1228.2042 2096.9811,1395.3836 2053.5538,1568.5272 2010.1264,1741.6708 2000.321,1921.4936 2000,2100 1999.6788,2278.6383 2008.8585,2458.6673 2052.1714,2631.9756 2095.4843,2805.2838 2174.7702,2972.6059 2300,3100 2480.4876,3283.6069 2740.7329,3369.1586 2996.8296,3395.6495 3252.9262,3422.1405 3511.114,3395.9918 3768.4952,3389.4984 4161.6584,3379.5793 4570.6111,3412.9697 4933.3079,3260.8951 5123.3409,3181.2164 5292.2319,3052.0352 5419.6842,2890.118 5547.1365,2728.2009 5632.9664,2533.9487 5667.8707,2330.8651 5737.6792,1924.698 5593.4066,1489.4089 5300,1200 5108.8062,1011.4112 4860.8102,885.63705 4600.3499,820.20593 4339.8897,754.77481 4068.5531,750 3800,750 L 2800,750"
           id="seg22"
           inkscape:path-effect="#path-effect1"
           inkscape:original-d="m 4800,750 -1000,0 c -1000,0 -2500,350 -1500,350 1000,0 -1300,1000 -300,1000 1000,0 -700,1000 300,1000 1000,0 468.4952,289.4984 1468.4952,289.4984 500,0 1031.9365,418.7713 1164.8127,-128.6033 C 5066.1841,2713.5205 4800,1200 5300,1200 6300,1200 4800,750 3800,750 l -1000,0"
           sodipodi:nodetypes="cssssssssc"
           inkscape:connector-curvature="0" />
      </g>
      <g
         id="segment23"
         inkscape:groupmode="layer"
         inkscape:label="segment23"
         style="display:none">
        <path
           style="fill:none;stroke:#377eb8;stroke-width:15"
           d="M 4800,750 3800,750 C 3536.0349,750 3270.7428,745.0534 3009.4498,782.51682 2878.8032,801.24853 2749.242,831.67258 2627.3761,882.349 2505.5103,933.02543 2391.2165,1004.6116 2300,1100 2176.8419,1228.7908 2100.0751,1396.5575 2057.4421,1569.5819 2014.8091,1742.6062 2004.4581,1921.8565 2000,2100 1995.3346,2286.4261 1997.1318,2474.8637 2039.2602,2656.5274 2081.3886,2838.191 2167.0334,3014.3831 2307.4257,3137.1287 2458.9692,3269.6238 2662.2128,3329.8797 2862.7316,3347.5599 3063.2504,3365.24 3264.841,3344.083 3465.8416,3333.1683 4044.0738,3301.7692 4623.0667,3355.251 5200.495,3399.0099 5489.8708,3420.9395 5781.7452,3440.8252 6061.3766,3518.4498 6341.0079,3596.0745 6611.3569,3736.9011 6794.0594,3962.3763 6915.7664,4112.5762 6993.3287,4292.9019 7067.8493,4471.2815 7142.3698,4649.6612 7216.6308,4830.9032 7333.1683,4985.1485 7517.0533,5228.5328 7797.0231,5387.4777 8091.5421,5466.9018 8386.0611,5546.3259 8694.9596,5550 9000,5550 L 10000,5550"
           id="seg23"
           inkscape:path-effect="#path-effect1"
           inkscape:original-d="m 4800,750 -1000,0 c -1000,0 -2500,350 -1500,350 1000,0 -1300,1000 -300,1000 1000,0 -692.5743,1037.1287 307.4257,1037.1287 1000,0 158.4159,196.0396 1158.4159,196.0396 500,0 1258.4158,-45.0495 1734.6534,65.8416 476.2377,110.8911 1093.5644,563.3664 1593.5644,563.3664 1000,0 -460.8911,1022.7722 539.1089,1022.7722 C 8333.1683,4985.1485 8000,5550 9000,5550 l 1000,0"
           sodipodi:nodetypes="csssssssssc"
           inkscape:connector-curvature="0" />
      </g>
      <g
         id="segment24"
         inkscape:groupmode="layer"
         inkscape:label="segment24"
         style="display:none">
        <path
           style="fill:none;stroke:#377eb8;stroke-width:15"
           d="M 4800,750 3800,750 C 3536.1815,750 3271.0162,745.44595 3009.9556,783.49263 2748.895,821.53932 2484.052,910.98924 2300,1100 2175.3794,1227.9782 2095.7802,1394.9292 2052.0443,1568.1224 2008.3085,1741.3157 1998.7152,1921.3745 2000,2100 2001.2811,2278.1116 2013.3669,2457.3425 2057.5612,2629.8889 2101.7554,2802.4353 2179.4811,2968.849 2300,3100 2479.7415,3295.5982 2742.6318,3399.166 3006.1443,3432.734 3269.6568,3466.302 3536.8112,3436.0179 3800,3400 4768.5943,3267.4461 5732.0359,3055.2715 6634.2476,2678.7619 7079.7377,2492.8507 7508.3105,2267.7505 7956.7818,2089.1507 8405.2531,1910.5509 8880.8902,1778.0062 9363.4794,1789.4984 9821.6651,1800.4095 10277.577,1945.1721 10651.187,2210.6314 11024.798,2476.0906 11313.261,2862.5579 11450,3300 11569.809,3683.2798 11571.754,4102.8662 11453.106,4486.5068 11334.458,4870.1475 11095.914,5214.2327 10784.33,5467.5568 10472.746,5720.8809 10092.43,5881.9598 9699.3074,5963.8882 9306.185,6045.8166 8901.5688,6050 8500,6050 L 7500,6050"
           id="seg24"
           inkscape:path-effect="#path-effect1"
           inkscape:original-d="m 4800,750 -1000,0 c -1000,0 -2500,350 -1500,350 1000,0 -1300,1000 -300,1000 1000,0 -700,1000 300,1000 1000,0 500,300 1500,300 500,0 1693.3777,-318.6127 2834.2476,-721.2381 C 7775.1175,2276.1365 8863.4794,1789.4984 9363.4794,1789.4984 10363.479,1789.4984 10450,3300 11450,3300 c 1000,0 -1950,2750 -2950,2750 l -1000,0"
           sodipodi:nodetypes="csssssssssc"
           inkscape:connector-curvature="0" />
      </g>
      <g
         id="segment25"
         inkscape:groupmode="layer"
         inkscape:label="segment25"
         style="display:inline">
        <path
           style="fill:none;stroke:#377eb8;stroke-width:15"
           d="M 4800,810 3800,810 C 3572.0161,810 3342.3074,809.61512 3118.5427,853.27276 2894.778,896.9304 2674.0467,988.89073 2515.2825,1152.5079 2359.942,1312.5967 2275.0982,1529.5247 2231.0349,1748.1969 2182.866,1987.244 2179.6349,2238.4226 2248.4089,2472.3754 2317.183,2706.3282 2461.7934,2921.8776 2667.5555,3052.7429 2845.9794,3166.2211 3060.3758,3211.5753 3271.5931,3221.5572 3482.8104,3231.5392 3693.9688,3208.3172 3905.0158,3195.2191 4354.8665,3167.3003 4807.2427,3185.3277 5255.7957,3141.2225 6119.3899,3056.3072 6944.3363,2743.7176 7733.1818,2382.1538 8522.0273,2020.5901 9288.2278,1606.6455 10100,1300 10371.109,1197.589 10648.454,1108.9644 10933.829,1058.4747 11219.204,1007.985 11510.193,1000 11800,1000 L 12800,1000"
           id="seg25"
           inkscape:path-effect="#path-effect1"
           inkscape:original-d="m 4800,810 -1000,0 c -1000,0 -6113.7182,274.3613 -1284.7175,342.5079 354.553,5.0035 715.7524,595.689 -284.2476,595.689 -130891.0849,0 246572.9851,-1491.71528 436.5206,1304.546 -999.9355,11.3598 237.4603,142.4762 1237.4603,142.4762 500,0 2738.3151,-282.3542 1350.7799,-53.9966 C -2039.791,4341.9151 9600,1300 10100,1300 c 1000,0 700,-300 1700,-300 l 1000,0"
           sodipodi:nodetypes="cssssssssc"
           inkscape:connector-curvature="0" />
      </g>
    </g>
    <g
       id="segment3X"
       inkscape:groupmode="layer"
       inkscape:label="segment3X"
       style="display:inline">
      <g
         id="segment31"
         inkscape:groupmode="layer"
         inkscape:label="segment31"
         style="display:none">
        <path
           style="fill:none;stroke:#4daf4a;stroke-width:15"
           d="M 8000,5550 9000,5550 C 9238.57,5550 9478.7157,5547.3138 9712.8367,5501.4557 9946.9578,5455.5977 10174.001,5366.2927 10368.119,5227.6065 10562.237,5088.9203 10721.554,4902.2108 10828.949,4689.1801 10936.343,4476.1494 10992.12,4238.4398 11000,4000 11009.831,3702.5206 10945.252,3401.9476 10807.396,3138.1552 10669.54,2874.3628 10457.982,2648.4443 10200,2500 9965.0217,2364.7924 9695.2891,2295.0378 9424.5699,2280.6479 9153.8508,2266.2579 8881.9432,2306.0016 8620.8894,2379.1237 8098.7817,2525.3677 7624.2222,2801.1174 7147.6292,3059.6572 6633.6849,3338.4591 6104.313,3602.4402 5535.2105,3736.573 4900.2885,3886.219 4240.0574,3868.9644 3588.1161,3891.1531 3290.0263,3901.2985 2990.139,3919.7761 2694.5969,3879.5845 2399.0549,3839.393 2103.411,3735.1732 1886.3218,3530.6427 1701.9788,3356.9641 1585.0075,3120.5661 1522.8071,2875.051 1460.6066,2629.5359 1450.0765,2373.8485 1454.1525,2120.6096 1457.9278,1886.0525 1474.2534,1649.9136 1535.0059,1423.3294 1595.7584,1196.7451 1703.3247,978.8042 1870.0635,813.79067 2110.5569,575.78573 2451.336,466.12035 2786.526,419.95683 3121.716,373.7933 3461.646,380 3800,380 L 4800,380"
           id="seg31"
           inkscape:path-effect="#path-effect1"
           inkscape:original-d="m 8000,5550 1000,0 c 1000,0 1000,-1550 2000,-1550 1000,0 -1800,-1500 -800,-1500 500,0 -735.0898,309.4222 -3052.3708,559.6572 -579.3202,62.5588 -1003.6234,492.4732 -1612.4187,676.9158 -608.7953,184.4427 -1402.0828,123.4135 -1947.0944,154.5801 -1090.0232,62.3333 -1951.7943,-360.5104 -1701.7943,-360.5104 500,0 -138.0867,-719.868 -432.1693,-1410.0331 -294.0826,-690.165 -84.089,-1306.81893 415.911,-1306.81893 C 2870.0635,813.79067 2800,380 3800,380 l 1000,0"
           sodipodi:nodetypes="cssssssssssc"
           inkscape:connector-curvature="0" />
      </g>
      <g
         id="segment32"
         inkscape:groupmode="layer"
         inkscape:label="segment32"
         style="display:inline">
        <path
           style="fill:none;stroke:#4daf4a;stroke-width:15"
           d="M 8000,5370 9000,5370 C 9229.8463,5370 9461.4912,5367.149 9686.2562,5319.0868 9911.0213,5271.0247 10127.633,5177.3162 10307.008,5033.6013 10486.382,4889.8864 10626.351,4697.7966 10709.307,4483.4424 10792.262,4269.0881 10818.704,4034.364 10795.219,3805.7207 10761.232,3474.8372 10622.257,3155.1989 10401.776,2906.146 10181.296,2657.0931 9880.1716,2480.1365 9554.8348,2410.8911 9107.5799,2315.6964 8645.3499,2421.4349 8197.3742,2513.1776 7973.3863,2559.0489 7747.8556,2601.5921 7519.541,2613.7251 7291.2265,2625.8581 7058.9123,2606.8099 6842.7854,2532.2184 6500.6665,2414.1434 6220.3946,2165.7813 5967.8648,1906.5212 5715.3351,1647.2611 5477.4024,1368.382 5179.2318,1163.2445 4980.1698,1026.2924 4755.8109,926.00861 4520.4973,871.15362 4285.1838,816.29862 4041.6227,810 3800,810 L 2800,810"
           id="seg32"
           inkscape:path-effect="#path-effect1"
           inkscape:original-d="m 8000,5370 1000,0 c 1000,0 795.2191,-1564.2793 1795.219,-1564.2793 1000,0 -2240.3842,-1394.8296 -1240.3842,-1394.8296 1000.0002,0 -3215.12,-1866.39039 -2712.0494,121.3273 C 7088.1389,3501.6521 4179.2318,1163.2445 5179.2318,1163.2445 6179.2318,1163.2445 4800,810 3800,810 l -1000,0"
           sodipodi:nodetypes="cssssssc"
           inkscape:connector-curvature="0" />
      </g>
      <g
         id="segment33"
         inkscape:groupmode="layer"
         inkscape:label="segment33"
         style="display:none">
        <path
           style="fill:none;stroke:#4daf4a;stroke-width:15"
           d="M 8000,5550 9000,5550 C 9238.8246,5550 9479.2082,5547.3636 9713.6388,5501.7621 9948.0694,5456.1606 10175.547,5367.2989 10370.177,5228.8931 10564.808,5090.4873 10724.718,4903.8275 10832.062,4690.4863 10939.406,4477.1451 10994.43,4238.7597 11000,4000 11006.915,3703.5882 10937.904,3405.3963 10799.149,3143.3755 10660.395,2881.3546 10451.974,2656.2589 10200,2500 9868.8719,2294.6546 9468.5696,2211.8847 9079.9671,2240.1805 8691.3645,2268.4763 8314.5897,2404.2104 7980.8763,2605.3271 7576.1619,2849.2334 7220.7445,3206.484 7074.4508,3655.797 6990.7038,3913.0099 6979.4464,4194.3007 7048.724,4455.7823 7118.0017,4717.2639 7268.0719,4956.2228 7471.5333,5134.4795 7674.9948,5312.7362 7928.7132,5428.5648 8192.6862,5487.6436 8456.6591,5546.7223 8729.4967,5550 9000,5550 L 10000,5550"
           id="seg33"
           inkscape:path-effect="#path-effect1"
           inkscape:original-d="m 8000,5550 1000,0 c 1000,0 1000,-1550 2000,-1550 1000,0 -1800,-1500 -800,-1500 500,0 -1269.1237,-519.6729 -2219.1237,105.3271 -950,625 -1406.4255,1050.4699 -906.4255,1050.4699 C 8074.4508,3655.797 8000,5550 9000,5550 l 1000,0"
           sodipodi:nodetypes="cssssssc"
           inkscape:connector-curvature="0" />
      </g>
      <g
         id="segment35"
         inkscape:groupmode="layer"
         inkscape:label="segment35"
         style="display:none">
        <path
           style="fill:none;stroke:#4daf4a;stroke-width:15"
           d="M 8000,5550 9000,5550 C 9299.4977,5550 9602.3288,5545.2783 9892.3537,5470.5491 10182.379,5395.8198 10456.699,5250.0097 10665.037,5034.8489 10873.375,4819.6882 11011.852,4538.9228 11060.13,4243.3418 11108.408,3947.7608 11068.401,3640.6858 10962.871,3360.396 10861.543,3091.2663 10699.75,2843.9272 10487.121,2650.3118 10274.491,2456.6964 10010.73,2317.8882 9728.7129,2261.6337 9465.8042,2209.1908 9192.3877,2228.4386 8930.588,2286.1631 8668.7883,2343.8875 8416.9082,2439.2366 8168.3169,2539.604 7806.5515,2685.6648 7449.3116,2843.1055 7099.0099,3014.8515 6434.3516,3340.7202 5779.4285,3723.3569 5049.505,3846.5347 4438.226,3949.6907 3812.9869,3863.7189 3193.0693,3861.3861 2956.2701,3860.495 2718.3409,3871.8043 2483.5264,3841.1977 2248.7119,3810.5911 2013.0812,3734.3249 1834.1584,3579.2079 1681.3517,3446.7322 1578.3867,3263.5754 1517.3952,3070.7549 1456.4037,2877.9345 1435.0855,2674.7931 1425.7426,2472.7723 1409.1236,2113.4235 1429.9742,1749.098 1529.703,1403.4654 1627.7658,1063.6067 1809.5517,737.40768 2094.0595,527.22773 2292.3071,380.77239 2531.6549,296.92707 2774.8383,256.76276 3018.0216,216.59844 3266.1846,218.32362 3512.3762,230.19803 3908.265,249.2927 4302.8599,294.36915 4693.0693,363.8614 4899.9602,400.70653 5106.8018,444.75585 5302.2182,522.0466 5497.6346,599.33735 5682.3453,711.58985 5821.7822,868.8119 5970.9792,1037.0389 6061.641,1247.849 6149.4814,1454.8372 6237.3219,1661.8255 6327.1981,1872.8413 6475.2475,2042.0792 6604.1706,2189.4535 6773.8383,2299.4203 6958.3956,2364.8339 7142.9529,2430.2476 7341.985,2451.7462 7537.1287,2435.6436 7810.3143,2413.1013 8073.1246,2318.44 8319.3817,2198.0407 8565.6388,2077.6415 8798.1231,1931.249 9037.1287,1797.0297 9492.1861,1541.4813 9971.0993,1330.0183 10460.148,1147.7723 10701.102,1057.9797 10946.967,977.13188 11201.324,939.39428 11455.681,901.65667 11714.482,912.51049 11970.792,933.16832 L 12800,1000"
           id="seg35"
           inkscape:path-effect="#path-effect1"
           inkscape:original-d="m 8000,5550 1000,0 c 1000,0 962.8712,-2189.604 1962.871,-2189.604 1000,0 -1995.6287,-612.1856 -1234.1581,-1098.7623 558.8011,-357.0716 -973.7624,10.6435 -1560.396,277.9703 -586.6337,267.3267 -89.109,-81.6832 -1069.307,475.2475 -980.198,556.9307 -1113.8614,831.6832 -2049.5049,831.6832 -935.6436,0 -905.9406,37.1287 -1856.4357,14.8514 -950.495,-22.2772 -987.6237,178.2178 -1358.9109,-282.1782 -371.2871,-460.396 -438.1188,-594.0594 -408.4158,-1106.4356 29.7029,-512.3763 -133.6634,-438.1188 103.9604,-1069.3069 237.6237,-631.18813 -7.5883,-1219.40254 564.3565,-876.23767 930.1702,558.09887 846.5346,-319.3069 1418.3167,-297.0297 571.7822,22.2772 720.2971,22.27717 1180.6931,133.66337 460.3961,111.3861 898.5149,29.703 1128.7129,504.9505 230.198,475.2475 245.0495,905.9406 653.4653,1173.2673 408.4159,267.3267 497.5248,430.6931 1061.8812,393.5644 564.3565,-37.1287 1069.3069,-460.396 1500,-638.6139 430.6931,-178.2178 1116.6203,-616.0734 1423.0193,-649.2574 1079.598,-116.9238 513.876,-294.94049 1510.644,-214.60398 L 12800,1000"
           sodipodi:nodetypes="csssssssssssssssssssc"
           inkscape:connector-curvature="0" />
      </g>
    </g>
    <g
       id="segment4X"
       inkscape:groupmode="layer"
       inkscape:label="segment4X"
       style="display:inline">
      <g
         id="segment41"
         inkscape:groupmode="layer"
         inkscape:label="segment41"
         style="display:inline">
        <path
           style="fill:none;stroke:#984ea3;stroke-width:15"
           d="M 9500,6050 8500,6050 C 8179.2669,6050 7852.287,6028.347 7555.7896,5906.04 7259.2922,5783.7329 7005.8513,5576.4319 6777.2278,5351.4852 6542.4789,5120.5115 6325.29,4871.9155 6085.0391,4646.6703 5844.7883,4421.4252 5577.7841,4217.7722 5271.7823,4096.0397 4854.69,3930.1136 4393.8493,3926.092 3945.1831,3912.0877 3496.517,3898.0833 3031.9172,3867.516 2635.3568,3657.1894 2371.6411,3517.3206 2150.1884,3301.5718 1994.9357,3046.6094 1839.6829,2791.647 1750.0282,2498.4276 1726.1561,2200.8719 1704.8399,1935.1744 1735.7666,1664.0932 1828.1799,1414.0746 1920.5932,1164.0559 2075.4934,935.75558 2281.6833,766.83171 2488.1371,597.69166 2741.6207,491.76497 3002.9205,437.41496 3264.2203,383.06494 3533.1077,380 3800,380 L 4800,380"
           id="seg41"
           inkscape:path-effect="#path-effect1"
           inkscape:original-d="M 9500,6050 8500,6050 C 7500,6050 5777.2278,5351.4852 6777.2278,5351.4852 7777.2278,5351.4852 4271.7823,4096.0397 5271.7823,4096.0397 6271.7823,4096.0397 -16363.615,3657.1894 2635.3568,3657.1894 3038.8221,3657.1894 2548.176,2227.298 1726.1561,2200.8719 1159.6358,2182.6596 1748.2674,766.83173 2281.6833,766.83171 3281.6833,766.83167 2800,380 3800,380 L 4800,380"
           sodipodi:nodetypes="csssssssc"
           inkscape:connector-curvature="0" />
      </g>
      <g
         id="segment42"
         inkscape:groupmode="layer"
         inkscape:label="segment42"
         style="display:none">
        <path
           style="fill:none;stroke:#984ea3;stroke-width:15"
           d="M 9500,6050 8500,6050 C 8224.5399,6050 7944.7147,6038.0434 7684.1058,5948.8174 7423.4969,5859.5914 7189.3398,5700.0717 7000,5500 6739.147,5224.3617 6560.1733,4879.6102 6435.1725,4521.2869 6310.1718,4162.9636 6236.4952,3789.1326 6163.8754,3416.6448 6091.2557,3044.1571 6018.9359,2670.1567 5896.4895,2310.9526 5774.0432,1951.7484 5598.9079,1605.3438 5342.0063,1326.019 5149.6514,1116.8747 4909.5711,949.68739 4641.2648,856.12731 4372.9585,762.56723 4084.1509,750 3800,750 L 2800,750"
           id="seg42"
           inkscape:path-effect="#path-effect1"
           inkscape:original-d="m 9500,6050 -1000,0 C 7500,6050 6000,5500 7000,5500 8000,5500 4342.0063,1326.019 5342.0063,1326.019 6342.0063,1326.019 4800,750 3800,750 l -1000,0"
           sodipodi:nodetypes="cssssc"
           inkscape:connector-curvature="0" />
      </g>
      <g
         id="segment44"
         inkscape:groupmode="layer"
         inkscape:label="segment44"
         style="display:none">
        <path
           style="fill:none;stroke:#984ea3;stroke-width:15"
           d="M 9500,6050 8500,6050 C 8257.4877,6050 8013.5783,6050.0373 7774.5398,6009.1376 7535.5012,5968.2379 7299.1055,5883.7351 7111.3861,5730.198 6846.1022,5513.2203 6704.1882,5183.9285 6571.7822,4867.8217 6467.8816,4619.7688 6363.2541,4369.5008 6312.913,4105.3203 6262.5719,3841.1398 6269.9703,3558.5016 6383.9054,3314.8946 6508.0251,3049.5117 6747.145,2853.4129 7005.3223,2714.9273 7263.4996,2576.4416 7544.6995,2487.4492 7815.9466,2376.7297 8092.2959,2263.9276 8358.8937,2128.2929 8635.4431,2015.9824 8911.9926,1903.6719 9201.8545,1814.2306 9500,1800 9942.7406,1778.8679 10388.974,1930.1481 10737.171,2204.419 11085.368,2478.6899 11335.019,2871.9285 11450,3300 11553.59,3685.664 11548.836,4100.8211 11429.247,4481.8277 11309.658,4862.8343 11075.234,5206.0446 10767.471,5460.5045 10459.709,5714.9644 10082.864,5878.5976 9692.3456,5962.0425 9301.8273,6045.4873 8899.3339,6050 8500,6050 L 7500,6050"
           id="seg44"
           inkscape:path-effect="#path-effect1"
           inkscape:original-d="m 9500,6050 -1000,0 c -1000,0 -2388.6139,-319.802 -1388.6139,-319.802 500,0 134.7243,-126.488 -539.6039,-862.3763 C 4834.806,2972.2752 5835.7487,3523.0478 6383.9054,3314.8946 6932.062,3106.7414 7027.4328,2139.6624 7815.9466,2376.7297 9392.9743,2850.8644 9250,1800 9500,1800 c 1000,0 950,1500 1950,1500 1000,0 -1950,2750 -2950,2750 l -1000,0"
           sodipodi:nodetypes="cssssssssc"
           inkscape:connector-curvature="0" />
      </g>
      <g
         id="segment45"
         inkscape:groupmode="layer"
         inkscape:label="segment45"
         style="display:none">
        <path
           style="fill:none;stroke:#984ea3;stroke-width:15"
           d="M 9500,6050 8500,6050 C 8249.3654,6050 7997.1168,6048.3746 7750.7999,6002.053 7504.483,5955.7315 7263.3105,5863.5286 7066.8317,5707.9208 6825.9975,5517.1843 6665.0375,5243.349 6540.3775,4962.5619 6429.1309,4711.9874 6341.8143,4448.4824 6311.0577,4176.0537 6280.301,3903.6249 6308.1284,3621.1207 6418.8119,3370.297 6567.5312,3033.2791 6855.5301,2774.2736 7172.5738,2586.7054 7489.6175,2399.1373 7838.8571,2274.2667 8179.672,2134.4678 8825.4848,1869.5617 9447.4821,1547.931 10100,1300 10370.923,1197.0601 10648.352,1108.5786 10933.766,1058.235 11219.18,1007.8915 11510.18,1000 11800,1000 L 12800,1000"
           id="seg45"
           inkscape:path-effect="#path-effect1"
           inkscape:original-d="m 9500,6050 -1000,0 c -1000,0 -2433.1683,-342.0792 -1433.1683,-342.0792 250,0 -236.3243,-292.2029 -526.4542,-745.3589 -290.13,-453.1559 -384.0656,-1067.2649 -121.5656,-1592.2649 262.5,-525 968.6881,-849.5049 1760.8601,-1235.8292 C 8971.8441,1748.1436 9850,1300 10100,1300 c 1000,0 700,-300 1700,-300 l 1000,0"
           sodipodi:nodetypes="csssssssc"
           inkscape:connector-curvature="0" />
      </g>
    </g>
  </g>
</svg>
