<?xml version="1.0" encoding="UTF-8" standalone="no"?>
<svg
   xmlns:dc="http://purl.org/dc/elements/1.1/"
   xmlns:cc="http://creativecommons.org/ns#"
   xmlns:rdf="http://www.w3.org/1999/02/22-rdf-syntax-ns#"
   xmlns:svg="http://www.w3.org/2000/svg"
   xmlns="http://www.w3.org/2000/svg"
   xmlns:xlink="http://www.w3.org/1999/xlink"
   xmlns:sodipodi="http://sodipodi.sourceforge.net/DTD/sodipodi-0.dtd"
   xmlns:inkscape="http://www.inkscape.org/namespaces/inkscape"
   width="1200"
   height="650"
   id="svg2"
   version="1.1"
   inkscape:version="0.48.5 r10040"
   sodipodi:docname="auto_segments.svg">
  <metadata
     id="metadata67">
    <rdf:RDF>
      <cc:Work
         rdf:about="">
        <dc:format>image/svg+xml</dc:format>
        <dc:type
           rdf:resource="http://purl.org/dc/dcmitype/StillImage" />
        <dc:title></dc:title>
      </cc:Work>
    </rdf:RDF>
  </metadata>
  <sodipodi:namedview
     pagecolor="#ffffff"
     bordercolor="#666666"
     borderopacity="1"
     objecttolerance="10"
     gridtolerance="10"
     guidetolerance="10"
     inkscape:pageopacity="0"
     inkscape:pageshadow="2"
     inkscape:window-width="640"
     inkscape:window-height="480"
     id="namedview65"
     showgrid="false"
     inkscape:zoom="0.33666667"
     inkscape:cx="600"
     inkscape:cy="325"
     inkscape:window-x="0"
     inkscape:window-y="27"
     inkscape:window-maximized="0"
     inkscape:current-layer="l_T" />
  <defs
     id="defs4">
    <inkscape:path-effect
       effect="spiro"
       id="path-effect1"
       is_visible="true" />
    <marker
       id="M_dot"
       viewBox="0 0 10 10"
       refX="5"
       refY="5">
      <circle
         cx="5"
         cy="5"
         r="5"
         fill="white"
         id="circle8" />
    </marker>
    <marker
       id="M_circ"
       viewBox="0 0 10 10"
       refX="5"
       refY="5">
      <circle
         cx="5"
         cy="5"
         r="5"
         fill="rgb(50,50,50)"
         id="circle11" />
    </marker>
  </defs>
  <g
     id="l_bg"
     inkscape:groupmode="layer"
     inkscape:label="background">
    <image
       sodipodi:absref="/home/t/KAL/segment/./bg.png"
       xlink:href="./bg.png"
       id="image14" />
  </g>
  <g
     id="l_logs_T"
     inkscape:groupmode="layer"
     inkscape:label="transformed logs">
    <g
       id="l_log1"
       inkscape:groupmode="layer"
       inkscape:label="log1">
      <image
         sodipodi:absref="/home/t/KAL/segment/./log1.svg"
         xlink:href="./log1.svg"
         id="image18" />
    </g>
    <g
       id="l_rt_pos"
       inkscape:groupmode="layer"
       inkscape:label="realtime_position">
      <image
         sodipodi:absref="/home/t/KAL/segment/./realtime_pos.svg"
         xlink:href="./realtime_pos.svg"
         id="image21" />
    </g>
  </g>
  <g
     id="l_T"
     inkscape:groupmode="layer"
     inkscape:label="transformation"
     transform="translate(0,650) scale(0.1,-0.1)">
    <g
       id="l_logs"
       inkscape:groupmode="layer"
       inkscape:label="untransformed logs" />
    <g
       id="l_seg"
       inkscape:groupmode="layer"
       inkscape:label="segments">
      <g
         id="l_pts_info"
         inkscape:groupmode="layer"
         inkscape:label="pts_info">
        <polyline
           points=" 2750,3900 1450,2200 3800,200 5500,700 5300,1200 3800,750 2300,1100 2000,2100 2300,3100 3800,3400 5300,1200 3800,750 2300,1100 2000,2100 2300,3100 3800,3400 7400,5000 9000,5400 11000,4000 10200,2500 7400,5000 9000,5400 11000,4000 10200,2500 9500,1800 11450,3300 8500,6000 7000,5500 9500,1800 11450,3300 8500,6000 7000,5500 10100,1300 11800,1000 "
           style="fill:none"
           stroke-opacity="0"
           stroke="black"
           stroke-width="50"
           marker-mid="url(#M_circ)"
           marker-start="url(#M_circ)"
           marker-end="url(#M_circ)"
           id="polyline27" />
        <g
           id="l_seg1X"
           inkscape:groupmode="layer"
           inkscape:label="seg1X">
          <g
             id="l_seg11"
             inkscape:groupmode="layer"
             inkscape:label="seg11">
            <path
               style="fill:none"
               stroke="rgb(255,0,0)"
               stroke-opacity="1"
               stroke-width="10"
               marker-mid="url(#M_dot)"
               d="M 3700,200 3800,200 C 4103.0406,200 4409.1661,206.87948 4702.8001,281.79734 4996.4341,356.7152 5274.6049,497.43974 5500,700 5877.615,1039.3587 6095.2046,1545.1177 6099.685,2052.7961 6104.1655,2560.4744 5900.0325,3063.7669 5556.2308,3437.3412 5212.429,3810.9154 4734.502,4054.3019 4232.6012,4130.8071 3730.7005,4207.3122 3207.7701,4119.554 2750,3900 2414.4659,3739.0724 2111.238,3507.0708 1880.8687,3214.8196 1650.4994,2922.5684 1494.619,2569.4455 1450,2200 1414.2665,1904.1265 1450.7491,1598.8397 1562.7036,1322.6438 1674.6581,1046.4479 1862.2624,801.68937 2098.725,620.29637 2335.1876,438.90338 2617.7881,322.45654 2909.798,262.88976 3201.8079,203.32297 3501.9765,200 3800,200 L 3900,200"
               id="seg11"
               inkscape:path-effect="#path-effect1"
               inkscape:original-d="    M  3700,200    3800,200  C  3900,200     5400,700    5500,700     5600,700     2650,3900    2750,3900     2850,3900     1350,2200    1450,2200     1550,2200     3700,200    3800,200  L  3900,200 "
               sodipodi:nodetypes="csssssc" />
          </g>
          <g
             id="l_seg13"
             inkscape:groupmode="layer"
             inkscape:label="seg13">
            <path
               style="fill:none"
               stroke="rgb(255,0,0)"
               stroke-opacity="1"
               stroke-width="10"
               marker-mid="url(#M_dot)"
               d="M 3700,200 3800,200 C 4103.003,200 4409.0948,207.00144 4702.6447,282.09619 4996.1947,357.19094 5274.1403,498.01442 5500,700 5798.4869,966.93579 5999.104,1328.88 6132.1792,1706.5573 6265.2544,2084.2346 6335.3765,2480.6058 6408.9594,2874.2233 6482.5424,3267.8407 6560.8821,3663.385 6709.1361,4035.366 6857.39,4407.347 7080.8986,4758.0839 7400,5000 7623.4296,5169.3858 7888.5062,5279.8824 8162.843,5337.7761 8437.1798,5395.6699 8719.6211,5400 9000,5400 L 9100,5400"
               id="seg13"
               inkscape:path-effect="#path-effect1"
               inkscape:original-d="    M  3700,200    3800,200  C  3900,200     5400,700    5500,700     5600,700     7300,5000    7400,5000     7500,5000     8900,5400    9000,5400  L  9100,5400 "
               sodipodi:nodetypes="cssssc" />
          </g>
          <g
             id="l_seg14"
             inkscape:groupmode="layer"
             inkscape:label="seg14">
            <path
               style="fill:none"
               stroke="rgb(255,0,0)"
               stroke-opacity="1"
               stroke-width="10"
               marker-mid="url(#M_dot)"
               d="M 3700,200 3800,200 C 4103.0607,200 4409.2043,206.81445 4702.8831,281.63801 4996.5619,356.46158 5274.8532,497.13371 5500,700 5775.3726,948.12179 5963.4307,1275.6336 6177.3954,1578.311 6284.3778,1729.6497 6399.2912,1876.4372 6534.3428,2003.3611 6669.3945,2130.2851 6825.6027,2237.2767 7000,2300 7203.6182,2373.2329 7426.0699,2383.86 7640.6112,2355.6568 7855.1526,2327.4535 8063.0385,2261.6455 8265.5316,2185.3567 8670.5176,2032.779 9068.6231,1834.7509 9500,1800 9944.6036,1764.1836 10397.97,1912.4126 10747.599,2189.3867 11097.228,2466.3608 11342.9,2867.0049 11450,3300 11544.694,3682.8373 11532.488,4092.4456 11408.538,4466.8354 11284.588,4841.2252 11048.978,5176.9173 10742.716,5425.3815 10436.453,5673.8457 10063.614,5833.15 9677.6983,5914.3919 9291.7824,5995.6338 8894.3746,6000 8500,6000 L 8400,6000"
               id="seg14"
               inkscape:path-effect="#path-effect1"
               inkscape:original-d="    M  3700,200    3800,200  C  3900,200     5400,700    5500,700     5600,700     6900,2300    7000,2300     7100,2300     9400,1800    9500,1800     9600,1800     11350,3300    11450,3300     11550,3300     8600,6000    8500,6000  L  8400,6000 "
               sodipodi:nodetypes="cssssssc" />
          </g>
          <g
             id="l_seg15"
             inkscape:groupmode="layer"
             inkscape:label="seg15">
            <path
               style="fill:none"
               stroke="rgb(255,0,0)"
               stroke-opacity="1"
               stroke-width="10"
               marker-mid="url(#M_dot)"
               d="M 3700,200 3800,200 C 4102.8361,200 4408.7782,207.54937 4701.9512,283.4392 4995.1243,359.32904 5272.0694,500.60764 5500,700 5777.7686,942.99031 5976.9501,1260.6896 6194.6918,1558.6632 6412.4335,1856.6367 6663.8176,2147.7468 7000,2300 7257.2551,2416.5079 7549.6729,2442.9909 7829.5428,2405.2143 8109.4128,2367.4376 8378.0115,2267.8394 8630.7846,2141.903 9136.3309,1890.0301 9585.2501,1532.4857 10100,1300 10364.548,1180.5175 10645.007,1096.4041 10931.66,1050.6718 11218.314,1004.9396 11509.721,1000 11800,1000 L 11900,1000"
               id="seg15"
               inkscape:path-effect="#path-effect1"
               inkscape:original-d="    M  3700,200    3800,200  C  3900,200     5400,700    5500,700     5600,700     6900,2300    7000,2300     7100,2300     10000,1300    10100,1300     10200,1300     11700,1000    11800,1000  L  11900,1000 "
               sodipodi:nodetypes="csssssc" />
          </g>
        </g>
        <g
           id="l_seg2X"
           inkscape:groupmode="layer"
           inkscape:label="seg2X">
          <g
             id="l_seg22"
             inkscape:groupmode="layer"
             inkscape:label="seg22">
            <path
               style="fill:none"
               stroke="rgb(255,255,0)"
               stroke-opacity="1"
               stroke-width="10"
               marker-mid="url(#M_dot)"
               d="M 3900,750 3800,750 C 3536.2002,750 3271.0511,745.49644 3010.0203,783.61819 2748.9896,821.73994 2484.2591,911.2173 2300,1100 2175.1899,1227.8742 2095.2256,1394.7196 2051.3473,1567.9364 2007.469,1741.1532 1997.9738,1921.3236 2000,2100 2002.0171,2277.8761 2015.4345,2456.7389 2060.036,2628.9443 2104.6376,2801.1496 2181.675,2967.1724 2300,3100 2477.7816,3299.5716 2738.8717,3411.803 3003.5758,3448.774 3268.2799,3485.745 3538.0581,3453.1182 3800,3400 4062.6045,3346.7474 4322.3124,3272.4199 4564.0211,3156.7745 4805.7298,3041.1292 5029.5756,2882.8768 5201.9878,2677.7646 5374.4,2472.6525 5493.5145,2219.0087 5518.692,1952.2447 5543.8695,1685.4807 5470.5903,1406.6299 5300,1200 5127.9735,991.63044 4870.3995,868.17048 4606.7045,809.21322 4343.0096,750.25595 4070.2055,750 3800,750 L 3700,750"
               id="seg22"
               inkscape:path-effect="#path-effect1"
               inkscape:original-d="    M  3900,750    3800,750  C  3700,750     2200,1100    2300,1100     2400,1100     1900,2100    2000,2100     2100,2100     2200,3100    2300,3100     2400,3100     3700,3400    3800,3400     3900,3400     5200,1200    5300,1200     5400,1200     3900,750    3800,750  L  3700,750 "
               sodipodi:nodetypes="csssssssc" />
          </g>
          <g
             id="l_seg23"
             inkscape:groupmode="layer"
             inkscape:label="seg23">
            <path
               style="fill:none"
               stroke="rgb(255,255,0)"
               stroke-opacity="1"
               stroke-width="10"
               marker-mid="url(#M_dot)"
               d="M 3900,750 3800,750 C 3536.137,750 3270.9331,745.32607 3009.8016,783.19457 2748.67,821.06308 2483.5592,910.44861 2300,1100 2175.8279,1228.2256 2097.0948,1395.4266 2053.6967,1568.5656 2010.2985,1741.7046 2000.473,1921.5055 2000,2100 1999.5265,2278.6894 2008.4295,2458.7941 2051.659,2632.1761 2094.8885,2805.5582 2174.3272,2972.9706 2300,3100 2484.6251,3286.618 2751.636,3369.7913 3012.899,3395.3714 3274.1621,3420.9515 3537.5218,3395.767 3800,3400 4654.0165,3413.7728 5479.7697,3740.868 6200,4200 6605.4812,4458.4859 6983.6629,4759.3895 7400,5000 7641.5555,5139.6003 7897.9355,5256.7353 8168.8697,5323.3087 8439.8038,5389.8821 8721.0066,5400 9000,5400 L 9100,5400"
               id="seg23"
               inkscape:path-effect="#path-effect1"
               inkscape:original-d="    M  3900,750    3800,750  C  3700,750     2200,1100    2300,1100     2400,1100     1900,2100    2000,2100     2100,2100     2200,3100    2300,3100     2400,3100     3700,3400    3800,3400     3900,3400     6100,4200    6200,4200     6300,4200     7300,5000    7400,5000     7500,5000     8900,5400    9000,5400  L  9100,5400 "
               sodipodi:nodetypes="cssssssssc" />
          </g>
          <g
             id="l_seg24"
             inkscape:groupmode="layer"
             inkscape:label="seg24">
            <path
               style="fill:none"
               stroke="rgb(255,255,0)"
               stroke-opacity="1"
               stroke-width="10"
               marker-mid="url(#M_dot)"
               d="M 3900,750 3800,750 C 3536.2,750 3271.0507,745.49583 3010.0195,783.61668 2748.9884,821.73752 2484.2566,911.21454 2300,1100 2175.1922,1227.8755 2095.2324,1394.7221 2051.3557,1567.9386 2007.4791,1741.1552 1997.9828,1921.3242 2000,2100 2002.0082,2277.8789 2015.4096,2456.7462 2060.0062,2628.9556 2104.6027,2801.165 2181.6484,2967.1924 2300,3100 2477.8049,3299.5228 2738.9171,3411.649 3003.6059,3448.5787 3268.2947,3485.5084 3538.0374,3452.911 3800,3400 4778.5336,3202.3565 5674.8754,2728.6836 6594.7276,2340.7881 7514.5798,1952.8926 8514.1029,1643.163 9500,1800 9925.9041,1867.753 10340.836,2024.3686 10688.559,2279.4641 11036.281,2534.5597 11314.227,2890.6706 11450,3300 11575.497,3678.3519 11575.986,4096.6094 11453.771,4476.0343 11331.556,4855.4592 11088.113,5192.7101 10774.63,5438.9381 10461.147,5685.1662 10081.765,5839.5726 9690.9174,5917.9158 9300.0695,5996.2589 8898.6223,6000 8500,6000 L 8400,6000"
               id="seg24"
               inkscape:path-effect="#path-effect1"
               inkscape:original-d="    M  3900,750    3800,750  C  3700,750     2200,1100    2300,1100     2400,1100     1900,2100    2000,2100     2100,2100     2200,3100    2300,3100     2400,3100     3700,3400    3800,3400     3900,3400     9400,1800    9500,1800     9600,1800     11350,3300    11450,3300     11550,3300     8600,6000    8500,6000  L  8400,6000 "
               sodipodi:nodetypes="cssssssssc" />
          </g>
          <g
             id="l_seg25"
             inkscape:groupmode="layer"
             inkscape:label="seg25">
            <path
               style="fill:none"
               stroke="rgb(255,255,0)"
               stroke-opacity="1"
               stroke-width="10"
               marker-mid="url(#M_dot)"
               d="M 3900,750 3800,750 C 3536.1869,750 3271.0262,745.46042 3009.9741,783.52862 2748.9221,821.59681 2484.1113,911.05458 2300,1100 2175.3251,1227.9484 2095.6213,1394.8691 2051.8446,1568.0691 2008.068,1741.269 1998.5028,1921.3596 2000,2100 2001.4922,2278.0436 2013.9602,2457.1691 2058.2711,2629.617 2102.582,2802.065 2180.1085,2968.3649 2300,3100 2479.1741,3296.7245 2741.5527,3402.7688 3005.3914,3437.3091 3269.2301,3471.8494 3537.0737,3440.9103 3800,3400 5991.6397,3058.9899 8009.1319,2040.1643 10100,1300 10373.07,1203.3335 10649.543,1113.1435 10934.499,1061.0705 11219.455,1008.9975 11510.325,1000 11800,1000 L 11900,1000"
               id="seg25"
               inkscape:path-effect="#path-effect1"
               inkscape:original-d="    M  3900,750    3800,750  C  3700,750     2200,1100    2300,1100     2400,1100     1900,2100    2000,2100     2100,2100     2200,3100    2300,3100     2400,3100     3700,3400    3800,3400     3900,3400     10000,1300    10100,1300     10200,1300     11700,1000    11800,1000  L  11900,1000 "
               sodipodi:nodetypes="csssssssc" />
          </g>
        </g>
        <g
           id="l_seg3X"
           inkscape:groupmode="layer"
           inkscape:label="seg3X">
          <g
             id="l_seg31"
             inkscape:groupmode="layer"
             inkscape:label="seg31">
            <path
               style="fill:none"
               stroke="rgb(100,255,255)"
               stroke-opacity="1"
               stroke-width="10"
               marker-mid="url(#M_dot)"
               d="M 8900,5400 9000,5400 C 9227.9156,5400 9456.9891,5398.056 9681.6888,5359.9038 9906.3884,5321.7517 10126.273,5247.1093 10319.892,5126.8718 10513.512,5006.6343 10679.431,4841.3658 10797.245,4646.2623 10915.059,4451.1588 10984.482,4227.3867 11000,4000 11020.242,3703.3954 10948.783,3402.5148 10805.951,3141.7792 10663.119,2881.0436 10450.249,2660.4976 10200,2500 9921.9566,2321.6764 9599.5616,2217.2636 9271.4575,2179.1177 8943.3534,2140.9718 8609.5016,2167.8348 8286.8542,2238.5881 7641.5593,2380.0948 7047.9594,2692.2808 6471.5155,3014.9914 5895.0716,3337.7019 5321.0061,3676.9024 4692.5131,3880.4365 4064.02,4083.9705 3364.5635,4142.3661 2750,3900 2400.9649,3762.3507 2089.4504,3529.8127 1860.7095,3232.4065 1631.9687,2935.0003 1486.9748,2573.3707 1450,2200 1420.7072,1904.2021 1459.5049,1600.7171 1571.6946,1325.4574 1683.8842,1050.1976 1869.8447,805.5218 2104.8417,623.50292 2339.8387,441.48405 2621.1603,323.91003 2912.2397,263.68367 3203.3191,203.45731 3502.7552,200 3800,200 L 3900,200"
               id="seg31"
               inkscape:path-effect="#path-effect1"
               inkscape:original-d="    M  8900,5400    9000,5400  C  9100,5400     10900,4000    11000,4000     11100,4000     10100,2500    10200,2500     10300,2500     2650,3900    2750,3900     2850,3900     1350,2200    1450,2200     1550,2200     3700,200    3800,200  L  3900,200 "
               sodipodi:nodetypes="cssssssc" />
          </g>
          <g
             id="l_seg32"
             inkscape:groupmode="layer"
             inkscape:label="seg32">
            <path
               style="fill:none"
               stroke="rgb(100,255,255)"
               stroke-opacity="1"
               stroke-width="10"
               marker-mid="url(#M_dot)"
               d="M 8900,5400 9000,5400 C 9227.3548,5400 9455.9019,5397.9428 9679.9292,5359.1881 9903.9566,5320.4333 10122.916,5244.7386 10315.425,5123.7822 10507.934,5002.8257 10672.534,4837.3223 10790.409,4642.9115 10908.285,4448.5006 10979.294,4226.4099 11000,4000 11027.339,3701.0642 10966.604,3394.37 10825.856,3129.2288 10685.107,2864.0877 10464.671,2641.6303 10200,2500 9961.4997,2372.3743 9691.7599,2311.0077 9422.0092,2290.8759 9152.2585,2270.7441 8881.1621,2290.521 8611.9899,2317.2987 8073.6455,2370.8541 7519.4577,2451.1509 7000,2300 6673.9869,2205.1372 6379.9362,2023.2829 6107.1186,1821.159 5834.3011,1619.035 5578.1741,1394.6861 5300,1200 5081.7147,1047.2284 4846.4626,914.63884 4591.1599,838.42767 4335.8571,762.21649 4066.4351,750 3800,750 L 3700,750"
               id="seg32"
               inkscape:path-effect="#path-effect1"
               inkscape:original-d="    M  8900,5400    9000,5400  C  9100,5400     10900,4000    11000,4000     11100,4000     10100,2500    10200,2500     10300,2500     6900,2300    7000,2300     7100,2300     5200,1200    5300,1200     5400,1200     3900,750    3800,750  L  3700,750 "
               sodipodi:nodetypes="cssssssc" />
          </g>
          <g
             id="l_seg33"
             inkscape:groupmode="layer"
             inkscape:label="seg33">
            <path
               style="fill:none"
               stroke="rgb(100,255,255)"
               stroke-opacity="1"
               stroke-width="10"
               marker-mid="url(#M_dot)"
               d="M 8900,5400 9000,5400 C 9228.4755,5400 9458.0761,5398.1663 9683.442,5360.5996 9908.808,5323.0328 10129.601,5249.4133 10324.307,5129.8702 10519.013,5010.3271 10686.224,4845.2739 10803.974,4649.478 10921.724,4453.6821 10989.577,4228.2377 11000,4000 11013.45,3705.4825 10931.764,3410.1959 10786.793,3153.4762 10641.823,2896.7565 10435.335,2677.5925 10200,2500 9811.1328,2206.5459 9335.5049,2023.2997 8848.6551,2005.684 8361.8054,1988.0682 7866.2735,2140.7657 7489.2378,2449.2735 7112.2021,2757.7813 6861.7324,3223.4139 6836.6767,3709.9375 6824.1488,3953.1993 6866.7095,4199.5025 6963.1781,4423.1698 7059.6467,4646.8371 7210.1425,4847.398 7400,5000 7618.8285,5175.8881 7886.2221,5285.1265 8161.3483,5341.056 8436.4745,5396.9856 8719.2465,5400 9000,5400 L 9100,5400"
               id="seg33"
               inkscape:path-effect="#path-effect1"
               inkscape:original-d="    M  8900,5400    9000,5400  C  9100,5400     10900,4000    11000,4000     11100,4000     10100,2500    10200,2500     10300,2500     7300,5000    7400,5000     7500,5000     8900,5400    9000,5400  L  9100,5400 "
               sodipodi:nodetypes="csssssc" />
          </g>
          <g
             id="l_seg35"
             inkscape:groupmode="layer"
             inkscape:label="seg35">
            <path
               style="fill:none"
               stroke="rgb(100,255,255)"
               stroke-opacity="1"
               stroke-width="10"
               marker-mid="url(#M_dot)"
               d="M 8900,5400 9000,5400 C 9263.5754,5400 9528.8158,5397.8756 9787.8486,5349.1517 10046.881,5300.4278 10299.47,5204.1571 10511.557,5047.6615 10723.645,4891.1658 10892.748,4674.4556 10982.16,4426.5093 11071.573,4178.563 11079.741,3901.2239 11000,3650 10931.767,3435.0302 10803.172,3244.2694 10662.021,3068.3599 10520.87,2892.4504 10365.474,2727.9096 10232.479,2545.7556 10099.484,2363.6016 9987.9938,2159.9755 9949.6798,1937.7148 9930.5228,1826.5844 9930.138,1711.7094 9954.161,1601.5285 9978.1841,1491.3476 10027.037,1385.9849 10100,1300 10196,1186.8656 10330.228,1110.7721 10471.446,1065.2442 10612.665,1019.7163 10761.599,1002.6686 10909.837,996.28133 11206.314,983.50671 11503.248,1000 11800,1000 L 11900,1000"
               id="seg35"
               inkscape:path-effect="#path-effect1"
               inkscape:original-d="    M  8900,5400    9000,5400  C  9100,5400     10900,3650    11000,3650     11100,3650     10000,1300    10100,1300     10200,1300     11700,1000    11800,1000  L  11900,1000 "
               sodipodi:nodetypes="cssssc" />
          </g>
        </g>
        <g
           id="l_seg4X"
           inkscape:groupmode="layer"
           inkscape:label="seg4X">
          <g
             id="l_seg41"
             inkscape:groupmode="layer"
             inkscape:label="seg41">
            <path
               style="fill:none"
               stroke="rgb(0,0,255)"
               stroke-opacity="1"
               stroke-width="10"
               marker-mid="url(#M_dot)"
               d="M 8600,6000 8500,6000 C 8227.397,6000 7951.3235,5993.8482 7689.0336,5919.5759 7426.7437,5845.3036 7181.059,5703.7891 7000,5500 6830.2333,5308.9207 6721.7893,5072.637 6611.5023,4842.0534 6501.2153,4611.4698 6383.2942,4378.144 6200,4200 5986.9516,3992.9378 5698.354,3875.6505 5404.8815,3829.4086 5111.409,3783.1667 4811.3874,3803.5651 4516.7954,3842.0351 4222.2034,3880.5052 3929.8355,3936.9232 3633.8726,3962.814 3337.9096,3988.7048 3035.1867,3983.2642 2750,3900 2385.5799,3793.6025 2061.8578,3559.9458 1834.9355,3255.5961 1608.0133,2951.2463 1477.1469,2578.6628 1450,2200 1428.8134,1904.475 1470.4844,1603.2203 1582.9577,1329.1151 1695.4311,1055.01 1879.3191,810.41167 2112.4699,627.58773 2345.6207,444.76378 2625.3376,325.75717 2915.26,264.69232 3205.1823,203.62746 3503.7165,200 3800,200 L 3900,200"
               id="seg41"
               inkscape:path-effect="#path-effect1"
               inkscape:original-d="    M  8600,6000    8500,6000  C  8400,6000     6900,5500    7000,5500     7100,5500     6100,4200    6200,4200     6300,4200     2650,3900    2750,3900     2850,3900     1350,2200    1450,2200     1550,2200     3700,200    3800,200  L  3900,200 "
               sodipodi:nodetypes="cssssssc" />
          </g>
          <g
             id="l_seg42"
             inkscape:groupmode="layer"
             inkscape:label="seg42">
            <path
               style="fill:none"
               stroke="rgb(0,0,255)"
               stroke-opacity="1"
               stroke-width="10"
               marker-mid="url(#M_dot)"
               d="M 8600,6000 8500,6000 C 8228.4724,6000 7953.3723,5990.698 7693.5008,5911.9959 7433.6292,5833.2938 7194.1397,5689.8342 7000,5500 6718.9286,5225.1619 6534.5561,4863.9948 6415.1805,4489.4463 6295.8049,4114.8978 6237.3774,3724.1496 6176.842,3335.7264 6116.3065,2947.3032 6052.6413,2556.94 5923.4702,2185.6558 5794.2991,1814.3716 5595.1146,1459.7007 5300,1200 5098.9946,1023.1154 4855.754,895.42504 4597.0626,826.35926 4338.3712,757.29348 4067.7524,750 3800,750 L 3700,750"
               id="seg42"
               inkscape:path-effect="#path-effect1"
               inkscape:original-d="    M  8600,6000    8500,6000  C  8400,6000     6900,5500    7000,5500     7100,5500     5200,1200    5300,1200     5400,1200     3900,750    3800,750  L  3700,750 "
               sodipodi:nodetypes="cssssc" />
          </g>
          <g
             id="l_seg44"
             inkscape:groupmode="layer"
             inkscape:label="seg44">
            <path
               style="fill:none"
               stroke="rgb(0,0,255)"
               stroke-opacity="1"
               stroke-width="10"
               marker-mid="url(#M_dot)"
               d="M 8600,6000 8500,6000 C 8228.5283,6000 7953.479,5990.5229 7693.7408,5911.5736 7434.0027,5832.6244 7194.8388,5689.0364 7000,5500 6645.3192,5155.8817 6439.2628,4668.1206 6420.2105,4174.306 6401.1582,3680.4914 6565.1265,3184.8331 6859.1292,2787.6199 7153.1319,2390.4068 7573.1701,2091.5685 8038.3842,1924.8599 8503.5983,1758.1514 9012.0691,1721.6461 9500,1800 9925.729,1868.3653 10340.47,2025.0306 10688.191,2279.9992 11035.912,2534.9679 11314.052,2890.8092 11450,3300 11575.691,3678.3168 11576.261,4096.6298 11454.058,4476.0874 11331.855,4855.5449 11088.362,5192.8068 10774.834,5439.0215 10461.306,5685.2362 10081.882,5839.6124 9691.0028,5917.9376 9300.1233,5996.2628 8898.6498,6000 8500,6000 L 8400,6000"
               id="seg44"
               inkscape:path-effect="#path-effect1"
               inkscape:original-d="    M  8600,6000    8500,6000  C  8400,6000     6900,5500    7000,5500     7100,5500     9400,1800    9500,1800     9600,1800     11350,3300    11450,3300     11550,3300     8600,6000    8500,6000  L  8400,6000 "
               sodipodi:nodetypes="csssssc" />
          </g>
          <g
             id="l_seg45"
             inkscape:groupmode="layer"
             inkscape:label="seg45">
            <path
               style="fill:none"
               stroke="rgb(0,0,255)"
               stroke-opacity="1"
               stroke-width="10"
               marker-mid="url(#M_dot)"
               d="M 8600,6000 8500,6000 C 8227.9564,6000 7952.3881,5992.2587 7691.3233,5915.7546 7430.2585,5839.2506 7187.7791,5696.8419 7000,5500 6819.0792,5310.3473 6689.5662,5073.5046 6619.1912,4821.0212 6548.8162,4568.5378 6536.9529,4300.8688 6576.1459,4041.7079 6654.5321,3523.386 6935.1609,3048.7933 7307.4264,2679.7129 7679.6919,2310.6325 8139.9794,2040.459 8619.9442,1829.6611 9099.909,1618.8631 9602.2138,1464.3499 10100,1300 10374.955,1209.2204 10650.623,1117.4043 10935.156,1063.7169 11219.688,1010.0295 11510.447,1000 11800,1000 L 11900,1000"
               id="seg45"
               inkscape:path-effect="#path-effect1"
               inkscape:original-d="    M  8600,6000    8500,6000  C  8400,6000     6900,5500    7000,5500     7100,5500     10000,1300    10100,1300     10200,1300     11700,1000    11800,1000  L  11900,1000 "
               sodipodi:nodetypes="cssssc" />
          </g>
        </g>
      </g>
    </g>
  </g>
</svg>
