<?xml version="1.0" encoding="UTF-8"?> 	<svg xmlns="http://www.w3.org/2000/svg" width="1200" height="650" > 	<defs>  <marker id="M_dot" viewBox="0 0 10 10" refX="5" refY="5"> 	<circle cx="5" cy="5" r="1" fill="black" />	</marker> 	<marker id="M_dot1" viewBox="0 0 10 10" refX="5" refY="5"> 	<circle cx="5" cy="5" r="5" fill="red" />	</marker> 	</defs>	<g transform="translate(0,650) scale(0.1,-0.1)">  <polyline points="
0,	0
0,	0
0,	0
3600,	750
3600,	750
3600,	750
3600,	750
3600,	750
3600,	750
3600,	750
3600,	750
3600,	750
3600,	750
3600,	750
3600,	750
3600,	750
3600,	750
3600,	750
3600,	750
3600,	750
3600,	750
3600,	750
3600,	750
3600,	750
3600,	750
3600,	750
3600,	750
3600,	750
3600,	750
3600,	750
3600,	750
3600,	750
3600,	750
3600,	750
3600,	750
3600,	750
3600,	750
3600,	750
3600,	750
3600,	750
3600,	750
3600,	750
3600,	750
3600,	750
3600,	750
3600,	750
3600,	750
3600,	750
3600,	750
3600,	750
3600,	750
3600,	750
3600,	750
3600,	750
3600,	750
3600,	750
3600,	750
3600,	750
3600,	750
3600,	750
3600,	750
3600,	750
3600,	750
3600,	750
3600,	750
3600,	750
3600,	750
3600,	750
3600,	750
3600,	750
3600,	750
3600,	750
3600,	750
3600,	750
3600,	750
3600,	750
3600,	750
3600,	750
3600,	750
3600,	750
3600,	750
3600,	750
3600,	750
3600,	750
3600,	750
3600,	750
3600,	750
3600,	750
3600,	750
3600,	750
3600,	750
3600,	750
3600,	750
3600,	750
3600,	750
3600,	750
3600,	750
3600,	750
3600,	750
3600,	750
3600,	750
3600,	750
3600,	750
3600,	750
3600,	750
3600,	750
3600,	750
3600,	750
3600,	750
3600,	750
3600,	750
3600,	750
3600,	750
3600,	750
3600,	750
3600,	750
3600,	750
3600,	750
3600,	750
3600,	750
3600,	750
3600,	750
3600,	750
3600,	750
3600,	750
3600,	750
3600,	750
3600,	750
3600,	750
3600,	750
3600,	750
3600,	750
3600,	750
3600,	750
3600,	750
3600,	750
3600,	750
3600,	750
3600,	750
3600,	750
3600,	750
3600,	750
3600,	750
3600,	750
3600,	750
3600,	750
3600,	750
3600,	750
3600,	750
3600,	750
3600,	750
3600,	750
3600,	750
3600,	750
3600,	750
3600,	750
3600,	750
3600,	750
3600,	750
3600,	750
3600,	750
3600,	750
3600,	750
3600,	750
3600,	750
3600,	750
3600,	750
3600,	750
3600,	750
3600,	750
3600,	750
3600,	750
3600,	750
3600,	750
3600,	750
3600,	750
3600,	750
3600,	750
3600,	750
3600,	750
3600,	750
3600,	750
3600,	750
3600,	750
3600,	750
3600,	750
3600,	750
3600,	750
3600,	750
3600,	750
3600,	750
3600,	750
3600,	750
3600,	750
3600,	750
3600,	750
3600,	750
3600,	750
3600,	750
3600,	750
3600,	750
3600,	750
3600,	750
3600,	750
3600,	750
3600,	750
3600,	750
3600,	750
3600,	750
3600,	750
3600,	750
3600,	750
3600,	750
3600,	750
3600,	750
3600,	750
3600,	750
3600,	750
3600,	750
3600,	750
3600,	750
3600,	750
3600,	750
3600,	750
3600,	750
3600,	750
3600,	750
3600,	750
3600,	750
3600,	750
3600,	750
3600,	750
3600,	750
3600,	750
3600,	750
3600,	750
3600,	750
3600,	750
3600,	750
3600,	750
3600,	750
3600,	750
3600,	750
3600,	750
3600,	750
3600,	750
3600,	750
3600,	750
3600,	750
3600,	750
3600,	750
3600,	750
3600,	750
3600,	750
3600,	750
3600,	750
3600,	750
3600,	750
3600,	750
3600,	750
3600,	750
3600,	750
3600,	750
3600,	750
3600,	750
3600,	750
3600,	750
3600,	750
3600,	750
3600,	750
3600,	750
3600,	750
3600,	750
3600,	750
3600,	750
3600,	750
3600,	750
3600,	750
3600,	750
3600,	750
3600,	750
3600,	750
3600,	750
3600,	750
3600,	750
3600,	750
3600,	750
3600,	750
3600,	750
3600,	750
3600,	750
3600,	750
3600,	750
3600,	750
3600,	750
3600,	750
3600,	750
3600,	750
3600,	750
3600,	750
3600,	750
3600,	750
3600,	750
3600,	750
3600,	750
3600,	750
3600,	750
3600,	750
3600,	750
3600,	750
3600,	750
3600,	750
3600,	750
3600,	750
3600,	750
3600,	750
3600,	750
3600,	750
3600,	750
3600,	750
3600,	750
3600,	750
3600,	750
3600,	750
3600,	750
3600,	750
3600,	750
3600,	750
3600,	750
3600,	750
3600,	750
3600,	750
3600,	750
3600,	750
3600,	750
3600,	750
3600,	750
3600,	750
3600,	750
3600,	750
3600,	750
3600,	750
3600,	750
3600,	750
3600,	750
3600,	750
3600,	750
3600,	750
3600,	750
3600,	750
3600,	750
3600,	750
3600,	750
3600,	750
3600,	750
3600,	750
3600,	750
3600,	750
3600,	750
3600,	750
3600,	750
3600,	750
3600,	750
3600,	750
3600,	750
3600,	750
3600,	750
3600,	750
3600,	750
3600,	750
3600,	750
3600,	750
3600,	750
3600,	750
3600,	750
3600,	750
3600,	750
3600,	750
3600,	750
3600,	750
3600,	750
3600,	750
3600,	750
3600,	750
3600,	750
3600,	750
3600,	750
3600,	750
3600,	750
3600,	750
3600,	750
3600,	750
3600,	750
3600,	750
3600,	750
3600,	750
3600,	750
3600,	750
3600,	750
3600,	750
3600,	750
3600,	750
3600,	750
3600,	750
3600,	750
3600,	750
3600,	750
3600,	750
3600,	750
3600,	750
3600,	750
3600,	750
3600,	750
3600,	750
3600,	750
3600,	750
3600,	750
3600,	750
3600,	750
3600,	750
3600,	750
3600,	750
3600,	750
3600,	750
3600,	750
3600,	750
3600,	750
3600,	750
3600,	750
3600,	750
3600,	750
3600,	750
3600,	750
3600,	750
3600,	750
3600,	750
3600,	750
3600,	750
3600,	750
3600,	750
3600,	750
3600,	750
3600,	750
3600,	750
3600,	750
3600,	750
3600,	750
3600,	750
3600,	750
3600,	750
3600,	750
3600,	750
3600,	750
3600,	750
3600,	750
3600,	750
3600,	750
3600,	750
3600,	750
3600,	750
3600,	750
3600,	750
3600,	750
3600,	750
3600,	750
3600,	750
3600,	750
3600,	750
3600,	750
3600,	750
3600,	750
3600,	750
3600,	750
3600,	750
3600,	750
3600,	750
3600,	750
3600,	750
3600,	750
3600,	750
3600,	750
3600,	750
3600,	750
3600,	750
3600,	750
3600,	750
3600,	750
3600,	750
3600,	750
3600,	750
3600,	750
3600,	750
3600,	750
3600,	750
3600,	750
3600,	750
3600,	750
3600,	750
3600,	750
3600,	750
3600,	750
3600,	750
3600,	750
3600,	750
3600,	750
3600,	750
3600,	750
3600,	750
3600,	750
3600,	750
3600,	750
3600,	750
3600,	750
3600,	750
3600,	750
3600,	750
3600,	750
3600,	750
3600,	750
3600,	750
3600,	750
3600,	750
3600,	750
3600,	750
3600,	750
3600,	750
3600,	750
3600,	750
3600,	750
3600,	750
3600,	750
3600,	750
3600,	750
3600,	750
3600,	750
3600,	750
3600,	750
3600,	750
3600,	750
3600,	750
3600,	750
3600,	750
3600,	750
3600,	750
3600,	750
3600,	750
3600,	750
3600,	750
3600,	750
3600,	750
3600,	750
3600,	750
3600,	750
3600,	750
3600,	750
3600,	750
3600,	750
3600,	750
3600,	750
3600,	750
3600,	750
3600,	750
3600,	750
3600,	750
3600,	750
3600,	750
3600,	750
3600,	750
3600,	750
3600,	750
3600,	750
3600,	750
3600,	750
3600,	750
3600,	750
3600,	750
3600,	750
3600,	750
3600,	750
3600,	750
3600,	750
3600,	750
3600,	750
3600,	750
3600,	750
3600,	750
3600,	750
3600,	750
3600,	750
3600,	750
3600,	750
3600,	750
3600,	750
3600,	750
3600,	750
3600,	750
3600,	750
3600,	750
3600,	750
3600,	750
3600,	750
3600,	750
3600,	750
3600,	750
3600,	750
3600,	750
3600,	750
3600,	750
3600,	750
3600,	750
3600,	750
3600,	750
3600,	750
3600,	750
3600,	750
3600,	750
3600,	750
3600,	750
3600,	750
3600,	750
3600,	750
3600,	750
3600,	750
3600,	750
3600,	750
3600,	750
3600,	750
3600,	750
3600,	750
3600,	750
3600,	750
3600,	750
3600,	750
3600,	750
3600,	750
3600,	750
3600,	750
3600,	750
3600,	750
3600,	750
3600,	750
3600,	750
3600,	750
3600,	750
3600,	750
3600,	750
3600,	750
3600,	750
3600,	750
3600,	750
3600,	750
3600,	750
3600,	750
3600,	750
3600,	750
3600,	750
3600,	750
3600,	750
3600,	750
3600,	750
3600,	750
3600,	750
3600,	750
3600,	750
3600,	750
3600,	750
3600,	750
3600,	750
3600,	750
3600,	750
3600,	750
3600,	750
3600,	750
3600,	750
3600,	750
3600,	750
3600,	750
3600,	750
3600,	750
3600,	750
3600,	750
3600,	750
3600,	750
3600,	750
3600,	750
3600,	750
3600,	750
3600,	750
3600,	750
3600,	750
3600,	750
3600,	750
3600,	750
3600,	750
3600,	750
3600,	750
3600,	750
3600,	750
3600,	750
3600,	750
3600,	750
3600,	750
3600,	750
3600,	750
3600,	750
3600,	750
3600,	750
3600,	750
3600,	750
3600,	750
3600,	750
3600,	750
3600,	750
3600,	750
3600,	750
3600,	750
3600,	750
3600,	750
3600,	750
3600,	750
3600,	750
3600,	750
3600,	750
3600,	750
3600,	750
3600,	750
3600,	750
3600,	750
3600,	750
3600,	750
3600,	750
3600,	750
3600,	750
3600,	750
3600,	750
3600,	750
3600,	750
3600,	750
3600,	750
3600,	750
3600,	750
3600,	750
3600,	750
3600,	750
3600,	750
3600,	750
3600,	750
3600,	750
3600,	750
3600,	750
3600,	750
3600,	750
3600,	750
3600,	750
3600,	750
3600,	750
3600,	750
3600,	750
3600,	750
3600,	750
3600,	750
3600,	750
3600,	750
3600,	750
3600,	750
3600,	750
3600,	750
3600,	750
3600,	750
3600,	750
3600,	750
3600,	750
3600,	750
3600,	750
3600,	750
3600,	750
3600,	750
3600,	750
3600,	750
3600,	750
3600,	750
3600,	750
3600,	750
3600,	750
3600,	750
3600,	750
3600,	750
3600,	750
3600,	750
3600,	750
3600,	750
" style="fill:none" stroke="black" stroke-opacity="0.1" stroke-width="100" marker-mid="url(#M_dot)" marker-start="url(#M_dot)" marker-end="url(#M_dot1)"/>	</g> </svg>